<svg xmlns="http://www.w3.org/2000/svg" xmlns:xlink="http://www.w3.org/1999/xlink"><defs><symbol class="icon" viewBox="0 0 1024 1024" id="A"><defs><style></style></defs><path d="M182.034 872.396l283.734-740h106.703l301.813 740H762.721l-85.422-224H366.752l-81.031 224H182.034zm212.562-304h251.89l-77.219-204.844c-23.844-62.172-41.516-113.563-53.047-154.156-9.516 47.656-22.765 94.906-39.765 141.75l-81.859 217.25z" fill="#d4237a" /></symbol><symbol class="icon" viewBox="0 0 1024 1024" id="Q"><defs><style></style></defs><path d="M683.257 885.856l-58.604-34.058q.682-.898 1.297-1.796l58.604 34.058q-.615.898-1.297 1.796" fill="#d4237a" /><path d="M684.554 884.06l-58.604-34.058a67.245 67.245 0 001.93-2.894l58.603 34.058a67.246 67.246 0 01-1.929 2.894" fill="#d4237a" /><path d="M686.483 881.166l-58.603-34.058a84.076 84.076 0 001.779-2.893l58.603 34.058a84.073 84.073 0 01-1.779 2.893" fill="#d4237a" /><path d="M688.262 878.273l-58.603-34.058a74.05 74.05 0 001.663-3.01l58.587 34.058a87.226 87.226 0 01-1.663 3.01M689.925 875.263l-58.586-34.058c.548-1.048 1.08-2.096 1.663-3.193l58.603 34.058c-.532 1.08-1.064 2.145-1.663 3.193" fill="#d4237a" /><path d="M691.555 872.07l-58.603-34.058q.831-1.663 1.663-3.492l58.603 34.057q-.765 1.797-1.663 3.493" fill="#d4237a" /><path d="M693.152 868.577l-58.604-34.057c.549-1.28 1.081-2.595 1.663-3.925l58.47 34.058c-.515 1.33-1.047 2.644-1.662 3.924" fill="#d4237a" /><path d="M694.682 864.653l-58.537-34.058c.582-1.513 1.147-3.06 1.663-4.623l58.537 34.058c-.533 1.563-1.081 3.11-1.663 4.623" fill="#d4237a" /><path d="M696.345 860.03l-58.537-34.058c.631-1.88 1.214-3.792 1.762-5.754l58.604 34.041a111.684 111.684 0 01-1.763 5.77" fill="#d4237a" /><path d="M698.174 854.26l-58.604-34.042c.699-2.528 1.33-5.105 1.896-7.783l58.604 34.025a126.301 126.301 0 01-1.896 7.766" fill="#d4237a" /><path d="M700.07 846.46l-58.604-34.025a162.19 162.19 0 001.513-8.165l58.604 34.058a162.19 162.19 0 01-1.513 8.165M701.583 838.328l-58.604-34.058h18.41l58.603 34.058h-18.409zM623.44 915.041L564.835 881l.216.116 58.604 34.058-.217-.133" fill="#d4237a" /><path d="M623.656 915.174l-58.604-34.058a33.792 33.792 0 003.492 1.663l58.604 34.058a33.792 33.792 0 01-3.492-1.663" fill="#d4237a" /><path d="M627.148 916.887l-58.604-34.058a28.653 28.653 0 003.093 1.098l58.604 34.041a28.653 28.653 0 01-3.093-1.097" fill="#d4237a" /><path d="M630.241 917.968l-58.62-34.041a28.537 28.537 0 002.81.648l58.604 34.058a27.49 27.49 0 01-2.81-.648M633.051 918.633l-58.603-34.058a23.88 23.88 0 002.644.316l58.604 34.058a23.88 23.88 0 01-2.645-.316" fill="#d4237a" /><path d="M635.696 918.95l-58.604-34.059h2.578l58.603 34.058h-2.577" fill="#d4237a" /><path d="M638.273 918.983l-58.603-34.058c.881 0 1.663-.133 2.627-.266l58.604 34.057c-.882.134-1.746.217-2.628.267" fill="#d4237a" /><path d="M640.9 918.716l-58.603-34.008a21.985 21.985 0 002.827-.598l58.604 34.058c-.948.25-1.896.449-2.827.598M643.728 918.118l-58.604-34.058a25.543 25.543 0 003.443-1.18l58.603 34.057a28.088 28.088 0 01-3.442 1.18M647.17 916.937l-58.603-34.058a31.813 31.813 0 003.924-1.946 100.993 100.993 0 0020.605-15.781l58.603 34.058a100.993 100.993 0 01-20.604 15.781 31.813 31.813 0 01-3.925 1.946" fill="#d4237a" /><path d="M671.7 899.21l-58.604-34.058c1.995-1.963 3.924-4.041 5.82-6.203l58.604 34.074a121.882 121.882 0 01-5.82 6.203" fill="#d4237a" /><path d="M677.52 893.023l-58.604-34.058a123.541 123.541 0 004.274-5.221l58.603 34.058a135.123 135.123 0 01-4.273 5.221M681.793 887.785l-58.62-34.058c.5-.632.981-1.28 1.464-1.929l58.603 34.058a83.878 83.878 0 01-1.463 1.929M578.639 1020.857l-58.57-34.058q-19.325-11.242-47.479-73.171l58.604 34.058q28.137 61.913 47.478 73.171M505.7 931.04l-58.603-34.059a53.598 53.598 0 0011.025-8.148l58.62 34.124a54.197 54.197 0 01-11.025 8.149" fill="#d4237a" /><path d="M516.742 922.957L458.14 888.9a34.01 34.01 0 001.862-1.962l58.604 34.058a34.01 34.01 0 01-1.863 1.962" fill="#d4237a" /><path d="M518.588 920.928l-58.603-34.058c.382-.465.765-.914 1.13-1.38l58.604 34.141c-.366.466-.748.915-1.13 1.38" fill="#d4237a" /><path d="M519.719 919.631l-58.604-34.058c.283-.366.55-.732.815-1.114l58.604 34.058c-.266.382-.532.748-.815 1.114M520.534 918.434l-58.67-34.058c.233-.316.449-.649.665-.981l58.604 34.058c-.217.332-.433.665-.666.98M521.2 917.453l-58.604-34.058.548-.915 58.587 34.058-.549.915" fill="#d4237a" /><path d="M521.731 916.538l-58.603-34.058v-.133l58.603 34.041-.083.15M386.447 959.726l-58.603-34.058.565.332 58.62 34.042-.565-.316M387.03 960.042L328.426 926a54.53 54.53 0 005.504 2.678l58.604 34.058a51.253 51.253 0 01-5.504-2.694" fill="#d4237a" /><path d="M392.517 962.736l-58.603-34.058c1.496.615 3.06 1.197 4.673 1.663l1.78.549 58.603 34.057-1.78-.548c-1.663-.533-3.176-1.115-4.673-1.663" fill="#d4237a" /><path d="M398.97 965.014l-58.604-34.058a61.115 61.115 0 006.486 1.497l58.603 34.058a61.115 61.115 0 01-6.485-1.497" fill="#d4237a" /><path d="M405.455 966.51l-58.603-34.057a66.203 66.203 0 006.868.798l58.604 34.058a66.203 66.203 0 01-6.869-.798M412.324 967.309L353.77 933.25a66.52 66.52 0 007.517 0l58.603 34.058a70.594 70.594 0 01-7.517 0" fill="#d4237a" /><path d="M419.84 967.375l-58.603-34.058a78.992 78.992 0 008.63-.864l58.604 34.058a78.992 78.992 0 01-8.63.864M428.471 966.51l-58.603-34.057a94.79 94.79 0 0010.66-2.262l58.603 34.058a98.681 98.681 0 01-10.66 2.262" fill="#d4237a" /><path d="M439.13 964.249l-58.603-34.058a123.909 123.909 0 0015.233-5.255l58.587 34.058a122.761 122.761 0 01-15.216 5.255" fill="#d4237a" /><path d="M454.347 958.994l-58.587-34.058a177.94 177.94 0 0021.336-10.643l29.934-17.312 58.604 34.058-29.934 17.312a178.156 178.156 0 01-21.353 10.643M521.831 916.388l-58.604-34.041q-14.068-71.508-32.66-111.42-7.534-16.064-18.01-22.15l58.603 34.057q10.51 6.12 18.01 22.134 18.592 39.829 32.661 111.42M332.284 887.652l-58.603-34.058q1.762-5.654 3.592-11.125l58.603 34.058q-1.813 5.454-3.592 11.125" fill="#d4237a" /><path d="M335.876 876.527l-58.603-34.058q4.19-12.573 8.63-24.08l58.604 34.058q-4.44 11.524-8.63 24.08M344.507 852.447l-58.604-34.058q3.626-9.38 7.367-18.077l58.604 34.058q-3.775 8.68-7.367 18.077" fill="#d4237a" /><path d="M351.874 834.37l-58.604-34.058q3.21-7.384 6.536-14.285l58.604 34.058q-3.326 6.885-6.536 14.285" fill="#d4237a" /><path d="M358.41 820.085l-58.604-34.058q2.943-6.12 5.987-11.824l58.603 34.008q-3.043 5.72-5.986 11.824" fill="#d4237a" /><path d="M364.396 808.211l-58.603-34.008a284.619 284.619 0 015.62-10.11l58.604 34.14c-1.896 3.326-3.775 6.652-5.62 10.111M370.017 798.233l-58.603-34.14a280.168 280.168 0 013.575-5.938c.383-.632.782-1.264 1.18-1.895l58.604 34.057c-.399.632-.798 1.264-1.18 1.896a243.594 243.594 0 00-3.576 5.937" fill="#d4237a" /><path d="M374.773 790.317L316.17 756.26c1.18-1.83 2.411-3.659 3.675-5.472l58.604 34.141a165.378 165.378 0 00-3.676 5.472" fill="#d4237a" /><path d="M378.449 784.93l-58.604-34.142q2.145-3.076 4.473-6.07l58.604 34.058q-2.328 2.994-4.473 6.07" fill="#d4237a" /><path d="M382.922 778.776l-58.604-34.058a165.018 165.018 0 015.837-7.1l58.537 34.008q-3.043 3.492-5.837 7.1" fill="#d4237a" /><path d="M388.692 771.626l-58.537-34.009q4.291-4.988 9.047-9.628l58.604 34.058a174.91 174.91 0 00-9.047 9.628" fill="#d4237a" /><path d="M397.806 762.047l-58.604-34.058a219.83 219.83 0 0144.9-33.626 165.4 165.4 0 0119.557-9.712l58.604 34.058a165.4 165.4 0 00-19.524 9.679 219.83 219.83 0 00-44.9 33.625" fill="#d4237a" /><path d="M462.196 718.71L403.66 684.65a109.474 109.474 0 0113.487-4.656l58.604 34.058a109.474 109.474 0 00-13.487 4.656" fill="#d4237a" /><path d="M475.683 714.053l-58.603-34.058a82.65 82.65 0 019.18-1.962l58.603 34.058a79.042 79.042 0 00-9.18 1.962" fill="#d4237a" /><path d="M484.863 712.09l-58.604-34.057a66.869 66.869 0 017.317-.732l58.604 34.058a66.869 66.869 0 00-7.317.732" fill="#d4237a" /><path d="M492.18 711.359l-58.587-34.058a55.278 55.278 0 016.22 0l58.636 34.108a54.878 54.878 0 00-6.202 0" fill="#d4237a" /><path d="M498.45 711.409l-58.587-34.058a51.553 51.553 0 015.604.648l58.603 34.058a51.403 51.403 0 00-5.62-.648" fill="#d4237a" /><path d="M504.004 712.057L445.4 678q2.644.483 5.189 1.198l58.603 34.058q-2.544-.715-5.188-1.198" fill="#d4237a" /><path d="M509.192 713.255l-58.603-34.058a47.412 47.412 0 014.989 1.763l58.57 34.124a47.412 47.412 0 00-4.989-1.763" fill="#d4237a" /><path d="M514.148 715.084l-58.604-34.124a46.397 46.397 0 014.84 2.361l58.603 34.058a46.397 46.397 0 00-4.839-2.361" fill="#d4237a" /><path d="M518.987 717.379l-58.603-34.058.532.3 58.603 34.057-.532-.299M581.599 828.55l-58.537-34.058.748-1.065 58.604 34.058-.749 1.064" fill="#d4237a" /><path d="M582.414 827.485l-58.604-34.058c1.164-1.663 2.328-3.326 3.459-5.172l58.604 34.058a139.72 139.72 0 01-3.46 5.172" fill="#d4237a" /><path d="M585.873 822.313l-58.604-34.058c1.164-1.812 2.295-3.675 3.326-5.587l58.604 34.058a151.043 151.043 0 01-3.41 5.587M589.282 816.726l-58.604-34.058a181.09 181.09 0 003.476-6.236l58.603 34.057a181.09 181.09 0 01-3.475 6.237" fill="#d4237a" /><path d="M592.757 810.49l-58.603-34.058q1.846-3.443 3.608-7.135l58.604 34.058a203.409 203.409 0 01-3.609 7.134" fill="#d4237a" /><path d="M596.366 803.355l-58.604-34.058c1.33-2.744 2.611-5.587 3.892-8.514l58.603 34.124c-1.28 2.927-2.56 5.77-3.891 8.515M600.257 794.907l-58.57-34.124q2.195-4.99 4.274-10.494l58.603 34.058q-2.078 5.438-4.273 10.494" fill="#d4237a" /><path d="M604.531 784.347l-58.603-34.058a568.03 568.03 0 004.989-13.72l58.603 34.059c-1.663 4.756-3.226 9.33-4.989 13.72" fill="#d4237a" /><path d="M609.454 770.628L550.85 736.57q3.077-9.213 5.87-19.324l58.604 34.058q-2.794 10.11-5.87 19.324" fill="#d4237a" /><path d="M615.324 751.304l-58.67-34.058q4.024-14.451 7.5-30.715l58.604 34.058q-3.493 16.264-7.5 30.715M622.824 720.589L564.22 686.53q3.942-18.476 7.201-39.33 1.896-12.073 3.542-24.845l58.604 34.058q-1.663 12.772-3.542 24.845-3.326 20.854-7.2 39.33" fill="#d4237a" /><path d="M633.567 656.414l-58.62-34.058q12.372-95.405 11.99-231.055-.582-206.875-40.178-292.935-14.684-31.846-36.669-44.618l58.67 34.058q21.919 12.739 36.586 44.618 39.596 86.06 40.178 292.935.399 135.65-11.99 231.055" fill="#d4237a" /><path d="M683.257 885.856q13.803-18.51 18.293-47.528h18.409q-13.653 71.724-36.586 114.263t-55.21 61.148q-23.016 13.304-43.804 9.38t-53.215-75.417q-4.623 7.983-18.443 15.948L475.8 984.953q-101.492 58.62-180.235-2.128T216.141 673.21q-.598-211.93 68.183-376.35T473.189 63.194Q583.927-.764 658.096 75.716t74.834 298.872q.532 185.34-38.431 303.262t-94.225 197.546q9.28 31.763 23.165 39.645a26.026 26.026 0 0027.656 0 106.431 106.431 0 0032.162-29.185zm-101.658-57.307q32.378-45.216 48.36-147.29t15.532-255.9q-.566-206.875-40.178-292.935T473.305 99.78q-78.592 45.366-124.524 178.139t-45.333 344.97q.3 106.064 7.5 173.581t21.336 91.182q18.293-58.304 41.309-95.439t69.146-63.825q55.345-31.963 85.495-4.274t53.365 104.435m-75.965 102.49c7.683-4.44 13.07-9.296 16.13-14.65q-14.068-71.509-32.66-111.338t-55.51-18.459q-18.477 10.677-43.787 46.564t-25.161 83.631q.1 37.168 32.478 47.695t78.51-16.115l29.933-17.311" fill="#d4237a" /><path d="M313.609 995.047l-58.604-34.057a167.196 167.196 0 01-18.027-12.157q-78.725-60.666-79.44-309.68a1149.122 1149.122 0 019.113-150.734l58.603 34.058a1149.122 1149.122 0 00-9.113 150.733q.715 248.999 79.424 309.615a167.196 167.196 0 0018.027 12.156" fill="#d4237a" /><path d="M225.254 522.477l-58.603-34.058q5.155-39.812 13.304-77.628l58.537 34.058q-8.082 37.816-13.304 77.628" fill="#d4237a" /><path d="M238.492 444.85l-58.604-34.092q5.671-26.608 12.755-52.068l58.604 34.058q-7.084 25.543-12.755 52.068" fill="#d4237a" /><path d="M251.247 392.781l-58.604-34.058q5.738-20.604 12.39-40.577l58.603 34.058q-6.652 19.956-12.39 40.577" fill="#d4237a" /><path d="M263.636 352.204l-58.603-34.058q5.72-17.311 12.24-34.124l58.603 34.041q-6.486 16.846-12.24 34.141" fill="#d4237a" /><path d="M275.876 318.063l-58.604-34.041q4.108-10.693 8.448-21.27 1.796-4.307 3.642-8.564l58.604 34.041q-1.846 4.274-3.642 8.581-4.424 10.494-8.515 21.203" fill="#d4237a" /><path d="M288.032 288.28l-58.604-34.042q5.721-13.138 11.741-25.66l58.604 34.058q-6.037 12.489-11.74 25.643" fill="#d4237a" /><path d="M299.773 262.636l-58.604-34.058q5.571-11.541 11.425-22.567l58.603 34.058q-5.87 11.01-11.424 22.567" fill="#d4237a" /><path d="M311.197 240.07l-58.603-34.059q5.587-10.526 11.425-20.538l58.603 34.042q-5.837 9.978-11.425 20.538" fill="#d4237a" /><path d="M322.622 219.515l-58.653-34.042q5.737-9.828 11.64-19.174l58.604 34.058q-5.97 9.363-11.64 19.174M334.33 200.357L275.726 166.3q6.07-9.479 12.356-18.459l58.604 34.058q-6.32 8.98-12.356 18.46M346.686 181.898l-58.604-34.058q6.652-9.529 13.653-18.509l58.687 34.041q-6.968 9.014-13.653 18.526" fill="#d4237a" /><path d="M360.422 163.372l-58.687-34.04q7.816-9.979 15.948-19.425l58.604 34.058q-8.149 9.38-15.948 19.407M376.287 143.965l-58.604-34.058q10.577-12.173 21.752-23.281l58.603 34.058q-11.175 11.058-21.751 23.281" fill="#d4237a" /><path d="M398.038 120.75l-58.603-34.058a370.43 370.43 0 0175.15-57.589 268.389 268.389 0 0131.231-15.549l58.604 34.058a265.778 265.778 0 00-31.231 15.582 370.43 370.43 0 00-75.15 57.59M504.42 47.612l-58.604-34.058a198.394 198.394 0 0123.88-8.198l58.687 34.058a198.394 198.394 0 00-23.88 8.198" fill="#d4237a" /><path d="M528.383 39.414L469.696 5.356a157.501 157.501 0 0117.661-3.692l58.604 34.058a157.501 157.501 0 00-17.578 3.692M545.96 35.655L487.358 1.664A134.253 134.253 0 01502.157.2l58.604 34.042a138.493 138.493 0 00-14.8 1.48M560.761 34.175L502.158.134a121.049 121.049 0 0113.47.116l58.604 34.058a125.173 125.173 0 00-13.47-.133" fill="#d4237a" /><path d="M574.232 34.308L515.628.25a114.38 114.38 0 0112.689 1.497l58.603 34.058a114.38 114.38 0 00-12.688-1.497M586.92 35.805L528.383 1.747a112.983 112.983 0 0112.373 2.86l58.603 34.058a112.983 112.983 0 00-12.372-2.86" fill="#d4237a" /><path d="M599.293 38.665L540.689 4.607a115.394 115.394 0 0112.39 4.374l58.603 34.058a115.394 115.394 0 00-12.39-4.374M611.682 43.039L553.078 8.98a121.132 121.132 0 0112.789 6.27l58.603 34.057a121.132 121.132 0 00-12.788-6.27" fill="#d4237a" /><path d="M624.47 49.308L565.867 15.25l1.413.815 58.604 34.058-1.414-.815" fill="#d4237a" /></symbol><symbol class="icon" viewBox="0 0 1024 1024" id="baby"><defs><style></style></defs><path d="M825.173 337.92c0 173.227-104.106 663.04-314.026 663.04S197.973 511.147 197.973 337.92 337.92 23.893 511.147 23.893 825.173 163.84 825.173 337.92z" fill="#F48FB1" /><path d="M512 1017.173c-124.587 0-205.653-151.04-251.733-278.186-52.054-143.36-79.36-310.614-79.36-401.92C180.907 154.453 329.387 5.973 512 5.973s331.093 148.48 331.093 331.094c0 145.92-69.973 487.253-203.946 620.373-40.107 40.107-82.774 59.733-127.147 59.733zm-.853-976.213c-163.84 0-296.96 133.12-296.96 296.96 0 165.547 102.4 645.12 296.96 645.973 35.84 0 69.973-16.213 102.4-49.493 71.68-70.827 117.76-199.68 145.066-294.4 34.134-121.173 48.64-238.933 48.64-302.08.854-163.84-132.266-296.96-296.106-296.96z" fill="#EC407A" /><path d="M825.173 337.92c0 173.227-104.106 663.04-314.026 663.04S197.973 511.147 197.973 337.92c0 91.307 132.267 224.427 305.494 224.427s279.893-115.2 321.706-224.427z" fill="#FCE4EC" /><path d="M512 1017.173c-124.587 0-205.653-151.04-251.733-278.186-52.054-143.36-79.36-310.614-79.36-401.92 0-9.387 7.68-17.067 17.066-17.067s17.067 7.68 17.067 17.067c0 81.92 123.733 207.36 288.427 207.36 164.693 0 266.24-110.08 306.346-213.334 2.56-7.68 11.094-11.946 18.774-10.24 7.68 1.707 13.653 8.534 13.653 17.067 0 145.92-69.973 487.253-203.947 620.373-39.253 39.254-81.92 58.88-126.293 58.88zM223.573 444.587C251.733 651.093 349.867 983.04 512 983.04c35.84 0 69.973-16.213 102.4-49.493 71.68-70.827 117.76-199.68 145.067-294.4 22.186-80.214 36.693-159.574 43.52-221.867-57.174 87.04-157.014 162.133-299.52 162.133-124.587 0-226.134-64-279.894-134.826z" fill="#EC407A" /><path d="M816.64 343.893c-8.533 190.294-112.64 640-313.173 639.147 2.56.853 122.026-127.147 173.226-280.747 52.907-157.866 92.16-257.706 131.414-359.253 2.56-6.827 8.533-7.68 8.533.853z" fill="#F8BBD0" /><path d="M720.213 362.667c0 115.2-93.866 209.066-209.066 209.066s-209.92-93.866-209.92-209.066c0-62.294 27.306-117.76 69.973-156.16 36.693-33.28 86.187-52.907 139.093-52.907 116.054 0 209.92 93.013 209.92 209.067z" fill="#FFF" /><path d="M511.147 588.8c-124.587 0-226.134-101.547-226.134-226.133 0-64 27.307-125.44 75.094-168.96 40.96-36.694 94.72-57.174 151.04-57.174 124.586 0 226.133 101.547 226.133 226.134S635.733 588.8 511.147 588.8zm0-418.133c-46.934 0-93.014 17.066-128 48.64-40.96 36.693-64 88.746-64 143.36-.854 105.813 85.333 192 192 192s192-86.187 192-192-86.187-192-192-192z" fill="#EC407A" /><path d="M209.92 473.6c212.48 99.84 367.787 271.36 438.613 443.733 0 0 42.667-43.52 69.12-112.64 0 0-135.68-307.2-519.68-453.973 0 0 11.947 75.093 11.947 122.88z" fill="#FFF" /><path d="M648.533 934.4h-3.413c-5.973-.853-10.24-5.12-12.8-10.24-73.387-180.907-233.813-343.04-430.08-435.2-5.973-2.56-9.387-8.533-10.24-15.36-.853-45.227-11.947-119.467-12.8-120.32-.853-5.973 1.707-11.947 5.973-16.213 5.12-3.414 11.094-5.12 17.067-2.56 385.707 147.626 523.947 450.56 529.067 463.36 1.706 4.266 1.706 8.533 0 12.8C704 882.347 660.48 927.573 658.773 929.28c-1.706 3.413-5.973 5.12-10.24 5.12zM226.987 462.507c189.44 91.306 346.453 247.466 425.813 422.4 12.8-17.067 31.573-44.374 45.227-79.36C676.693 762.88 540.16 512 217.6 377.173c4.267 23.894 8.533 57.174 9.387 85.334z" fill="#EC407A" /><path d="M826.027 350.72c-384 146.773-519.68 453.973-519.68 453.973 26.453 69.12 69.12 112.64 69.12 112.64C445.44 744.96 600.747 573.44 814.08 473.6c0-47.787 11.947-122.88 11.947-122.88z" fill="#FFF" /><path d="M375.467 934.4c-4.267 0-8.534-1.707-11.947-5.12-1.707-1.707-45.227-46.933-72.533-118.613-1.707-4.267-1.707-8.534 0-12.8 5.973-12.8 143.36-314.88 529.066-463.36 5.974-2.56 11.947-.854 17.067 2.56 5.12 3.413 6.827 10.24 5.973 16.213 0 .853-11.946 75.093-12.8 120.32 0 6.827-4.266 12.8-10.24 15.36-195.413 92.16-355.84 254.293-430.08 435.2-2.56 5.12-6.826 9.387-12.8 10.24h-1.706zM325.12 805.547c14.507 34.986 32.427 62.293 45.227 79.36 79.36-174.934 236.373-331.094 425.813-422.4.853-28.16 5.12-61.44 8.533-85.334C482.987 512 346.453 762.88 325.12 805.547zM377.173 203.947s57.174 54.613 53.76 98.986c11.094 0 27.307-29.013 27.307-90.453 0-67.413 65.707 40.107 69.12 70.827 17.067-11.947 52.907-58.027 54.613-74.24 17.067 23.893 40.96 52.906 39.254 89.6 19.626-5.12 39.253-32.427 30.72-89.6-70.827-87.04-240.64-46.08-274.774-5.12z" fill="#EC407A" /><path d="M430.933 320c-5.12 0-9.386-1.707-12.8-5.12-3.413-3.413-5.12-8.533-4.266-12.8 2.56-29.867-34.134-71.68-48.64-85.333-6.827-5.974-6.827-16.214-.854-23.04 25.6-29.867 96.427-52.907 162.134-52.054 42.666 0 100.693 10.24 138.24 57.174 1.706 2.56 3.413 5.12 3.413 8.533 10.24 69.12-17.067 101.547-43.52 109.227-5.12 1.706-11.093 0-15.36-3.414s-6.827-8.533-5.973-14.506c1.706-19.627-7.68-37.547-18.774-54.614-14.506 22.187-35.84 46.934-47.786 54.614-5.12 3.413-11.094 4.266-16.214 1.706-5.12-2.56-9.386-7.68-10.24-13.653-1.706-14.507-21.333-49.493-35.84-67.413C473.6 280.747 456.533 320 430.933 320zM581.12 191.147c5.12 0 11.093 2.56 14.507 7.68 1.706 3.413 4.266 5.973 6.826 9.386 11.094 15.36 23.04 32.427 29.867 52.907 3.413-11.093 5.12-25.6 2.56-46.08-29.013-33.28-75.093-40.107-109.227-40.96-15.36 0-30.72.853-45.226 3.413 21.333 11.947 41.813 47.787 53.76 74.24 13.653-16.213 29.013-38.4 29.866-45.226.854-6.827 5.974-12.8 12.8-15.36 1.707.853 2.56 0 4.267 0zM401.92 204.8c10.24 11.947 25.6 30.72 34.987 51.2 1.706-11.093 3.413-25.6 3.413-44.373 0-11.947 2.56-20.48 5.12-26.454-17.92 5.974-33.28 12.8-43.52 19.627zM413.013 378.88a17.92 17.92 0 1035.84 0 17.92 17.92 0 10-35.84 0z" fill="#EC407A" /><path d="M430.933 413.867c-19.626 0-34.986-15.36-34.986-34.987s15.36-34.987 34.986-34.987 34.987 15.36 34.987 34.987-15.36 34.987-34.987 34.987zm0-35.84c-.853 0-.853.853-.853.853 0 .853 1.707.853 1.707 0s0-.853-.854-.853zM574.293 378.88a17.92 17.92 0 1035.84 0 17.92 17.92 0 10-35.84 0z" fill="#EC407A" /><path d="M592.213 413.867c-19.626 0-34.986-15.36-34.986-34.987s15.36-34.987 34.986-34.987 34.987 15.36 34.987 34.987-15.36 34.987-34.987 34.987zm0-35.84c-.853 0-.853.853-.853.853" fill="#EC407A" /></symbol><symbol class="icon" viewBox="0 0 1024 1024" id="caution"><defs><style></style></defs><path d="M510.4 89.6C277 89.6 87.8 278.8 87.8 512.2S277 934.8 510.4 934.8 933 745.6 933 512.2 743.8 89.6 510.4 89.6zm-29.5 191.7c0-16.3 13.2-29.6 29.6-29.6 16.3 0 29.6 13.2 29.6 29.6v330.8c0 16.3-13.2 29.6-29.6 29.6-16.3 0-29.6-13.2-29.6-29.6V281.3zm29.5 491.4c-16.3 0-29.6-13.2-29.6-29.6s13.2-29.6 29.6-29.6 29.6 13.2 29.6 29.6-13.2 29.6-29.6 29.6z" fill="#d4237a" /></symbol><symbol class="icon" viewBox="0 0 1024 1024" id="discount"><defs><style></style></defs><path d="M346.298 673.047l21.411 13.033c16.756-27.927 29.79-57.716 36.306-94.022l-25.135-3.723c-4.655 32.581-16.756 60.509-32.582 84.712zm314.647-107.985c7.448-7.447 11.171-17.687 11.171-27.927v-7.448h-25.134v7.448c0 3.723-1.862 7.447-4.655 10.24-3.723 2.792-7.447 3.723-10.24 3.723H522.24V531.55h94.953c22.342 0 40.029-17.687 40.029-40.029v-43.753c0-22.342-17.687-40.029-40.03-40.029H522.24v-16.756h147.084v-25.135H522.24v-16.756h-25.135v16.756H349.091v25.135h147.084v16.756h-94.022c-22.342 0-40.03 18.618-40.03 40.03v43.752c0 22.342 18.619 40.03 40.03 40.03h94.952v19.548H347.23v25.135h284.858c11.171 0 20.48-3.724 28.858-11.171zM522.24 432.872h94.953c8.378 0 14.894 6.517 14.894 14.895v8.378H522.24v-23.272zm0 48.408h109.847v10.24c0 7.447-6.516 14.895-14.894 14.895H522.24V481.28zm-26.065 25.135h-94.022c-8.378 0-14.895-6.517-14.895-14.895v-10.24h109.847v25.135zm0-50.27H387.258v-8.378c0-8.378 6.517-14.894 14.895-14.894h94.952v23.272zm-26.997 192.699v-56.786h-25.134v56.786c0 22.341 13.032 40.029 40.029 40.029h119.156v-25.135H484.073c-10.24 0-14.895-6.516-14.895-14.894zm172.218-63.302l-23.272 9.309 39.098 92.16 23.273-9.31-39.099-92.16zm-93.09 58.647v-52.13H523.17v52.13h25.134z" fill="#e6c12b" /><path d="M512 158.255c9.31 0 18.618 10.24 25.135 17.687 21.41 26.996 47.476 40.96 78.196 40.96 13.964 0 27.927-2.793 42.822-9.31 8.378-3.723 15.825-5.585 21.41-5.585 5.586 0 17.688 0 21.412 30.72 7.447 50.27 38.167 80.99 88.436 88.437 10.24 1.861 24.204 4.654 27.927 13.032 4.655 7.448.931 21.411-2.793 30.72-18.618 47.477-7.447 89.368 32.582 121.019 8.378 7.447 18.618 16.756 18.618 26.065s-10.24 18.618-17.687 25.135c-40.029 31.65-51.2 73.541-32.582 121.018 3.724 10.24 7.448 23.272 2.793 30.72-4.654 7.447-17.687 11.17-27.927 13.032-50.27 7.448-80.99 38.168-88.437 88.437-4.654 30.72-15.825 30.72-21.41 30.72-5.586 0-13.033-1.862-21.411-5.586-14.895-5.585-29.79-9.309-42.822-9.309-29.79 0-55.855 13.964-78.197 40.96-7.447 8.378-16.756 18.618-26.065 18.618-9.31 0-18.618-10.24-25.135-17.687-21.41-26.996-47.476-40.96-78.196-40.96-13.964 0-27.927 2.793-42.822 9.31-8.378 3.723-15.825 5.585-21.41 5.585-5.586 0-17.688 0-21.412-30.72-7.447-50.27-38.167-80.99-88.436-88.437-10.24-1.861-24.204-4.654-27.927-13.032-4.655-7.448-.931-21.411 2.793-30.72 18.618-47.477 7.447-89.368-32.582-121.019-8.378-7.447-18.618-16.756-18.618-26.065s10.24-18.618 17.687-25.135c40.029-31.65 51.2-73.541 32.582-121.018-3.724-10.24-7.448-23.272-2.793-30.72 4.654-7.447 17.687-11.17 27.927-13.032 50.27-7.448 80.99-38.168 88.437-88.437 4.654-30.72 15.825-30.72 21.41-30.72 5.586 0 13.033 1.862 21.411 5.586 14.895 5.585 29.79 9.309 42.822 9.309 29.79 0 55.855-13.964 78.197-40.96 7.447-8.378 16.756-18.618 26.065-18.618m0-18.619c-13.033 0-26.065 8.379-40.03 25.135-17.686 23.273-39.097 34.444-63.3 34.444-11.172 0-23.274-2.793-36.306-7.448-11.171-4.654-20.48-6.516-28.859-6.516-22.341 0-35.374 15.825-40.029 46.545-6.516 41.891-30.72 67.026-72.61 72.611-41.891 6.517-55.855 28.858-40.03 68.888 15.826 40.029 6.517 72.61-26.996 99.607-33.513 26.065-33.513 53.062 0 79.127 33.513 26.066 42.822 59.578 26.996 99.607-15.825 40.03-2.792 62.371 40.03 68.888 41.89 6.516 67.025 30.72 72.61 72.61 4.655 30.72 17.688 46.546 40.03 46.546 8.378 0 17.687-1.862 28.858-6.516 13.032-4.655 25.134-7.448 36.305-7.448 24.204 0 45.615 11.171 63.302 34.444 13.033 16.756 26.065 25.135 40.029 25.135s26.065-8.379 40.03-25.135c17.686-23.273 39.097-34.444 63.3-34.444 11.172 0 23.274 2.793 36.306 7.448 11.171 4.654 20.48 6.516 28.859 6.516 22.341 0 35.374-15.825 40.029-46.545 6.516-41.891 30.72-67.026 72.61-72.611 41.891-6.517 55.855-28.859 40.03-68.888-15.826-40.029-6.517-72.61 26.996-99.607 33.513-26.065 33.513-53.062 0-79.127-33.513-26.066-42.822-59.578-26.996-99.607 15.825-40.03 2.792-62.371-40.03-68.888-41.89-6.516-67.025-30.72-72.61-72.61-4.655-30.72-17.688-46.546-40.03-46.546-8.378 0-17.687 1.862-28.858 6.516-13.032 4.655-25.134 7.448-36.305 7.448-24.204 0-45.615-11.171-63.302-34.444-13.964-16.756-26.996-25.135-40.029-25.135z" fill="#e6c12b" /><path d="M512 259.724c138.705 0 252.276 113.57 252.276 252.276S650.706 764.276 512 764.276 259.724 650.706 259.724 512 373.294 259.724 512 259.724m0-9.31c-144.29 0-261.585 117.295-261.585 261.586S367.709 773.585 512 773.585 773.585 656.291 773.585 512 656.291 250.415 512 250.415z" fill="#e6c12b" /></symbol><symbol class="icon" viewBox="0 0 1024 1024" id="exchange"><defs><style></style></defs><path d="M512 76.083a428.749 428.749 0 00-248.32 78.439l21.811-97.588a27.136 27.136 0 00-52.94-11.878L196.914 204.8a27.136 27.136 0 0020.48 32.358l159.642 35.636a26.829 26.829 0 005.939.614 27.136 27.136 0 006.144-53.658l-94.003-20.48A375.091 375.091 0 01512 130.253 379.7 379.7 0 01839.68 700.62a27.136 27.136 0 1046.797 27.34A433.869 433.869 0 00512 76.084zm289.792 711.578l-158.925-38.298A27.136 27.136 0 10630.17 802.1l93.593 22.63a371.405 371.405 0 01-218.214 64.82 379.7 379.7 0 01-318.362-576.103 27.136 27.136 0 00-46.387-28.16 433.869 433.869 0 00363.827 658.33H512a428.544 428.544 0 00241.971-74.24l-23.245 97.28a27.136 27.136 0 0020.48 32.666 26.42 26.42 0 006.35.716 27.136 27.136 0 0026.316-20.48l38.4-158.924a27.136 27.136 0 00-20.48-32.973z" fill="#1296db" /></symbol><symbol class="icon" viewBox="0 0 1024 1024" id="inq"><defs><style></style></defs><path d="M954.368 927.04l-27.264 27.264c-7.552 7.552-19.776 7.552-27.264 0L693.888 748.352c-151.488 124.16-375.424 115.52-516.864-25.92-150.656-150.656-150.656-394.88 0-545.536 150.656-150.656 394.88-150.656 545.536 0C864 318.336 872.576 542.208 748.48 693.76l205.952 205.952c7.424 7.616 7.424 19.84-.064 27.328zm-286.4-695.488c-120.512-120.512-315.904-120.512-436.416 0s-120.512 315.904 0 436.416 315.904 120.512 436.416 0 120.512-315.904 0-436.416z" fill="#fff" /></symbol><symbol class="icon" viewBox="0 0 1024 1024" id="inquery"><defs><style></style></defs><path d="M954.368 927.04l-27.264 27.264c-7.552 7.552-19.776 7.552-27.264 0L693.888 748.352c-151.488 124.16-375.424 115.52-516.864-25.92-150.656-150.656-150.656-394.88 0-545.536 150.656-150.656 394.88-150.656 545.536 0C864 318.336 872.576 542.208 748.48 693.76l205.952 205.952c7.424 7.616 7.424 19.84-.064 27.328zm-286.4-695.488c-120.512-120.512-315.904-120.512-436.416 0s-120.512 315.904 0 436.416 315.904 120.512 436.416 0 120.512-315.904 0-436.416z" fill="#d4237a" /></symbol><symbol class="icon" viewBox="0 0 1024 1024" id="kid"><defs><style></style></defs><path d="M819.2 230.4L710.4 416l-6.4 6.4V928c0 51.2-44.8 96-96 96-44.8 0-83.2-224-96-320-6.4 96-44.8 320-96 320s-96-44.8-96-96V422.4l-6.4-6.4-108.8-185.6c-25.6-32-12.8-70.4 25.6-89.6 32-19.2 76.8-12.8 96 25.6l96 153.6h179.2l96-160c19.2-32 64-44.8 102.4-25.6 32 19.2 44.8 64 19.2 96zM512 256c-70.4 0-128-57.6-128-128S441.6 0 512 0s128 57.6 128 128-57.6 128-128 128z" fill="#d4237a" /></symbol><symbol class="icon" viewBox="0 0 1024 1024" id="new"><defs><style></style></defs><path d="M511.656 81.519c-245.792 0-428.544 201.248-428.544 436.47 0 20.752 4.565 82.37 11.87 99.737l5.695 21.765c1.76 10.998 10.97 19.589 22.57 19.589 10.216 0 20.557-8.248 21.962-17.54l.564-5.093-2.762-15.899c-3.854-16.928-12.226-80.75-12.226-102.559 0-209.074 162.734-392.476 380.87-389.153 210.62 3.2 381.412 169.52 381.412 378.594 0 209.056-170.794 378.574-381.412 378.574-75.057 0-144.88-21.828-203.899-59.006-.106.075-.241.164-.35.242-10.189-5.069-23.517-3.59-33.25 4.641-25.317 23.53-50.387 37.868-71.119 46.621 5.741-39.596 7.03-89.065 5.087-109.45 0-3.744-.713-7.6-2.471-11.322-5.739-12.326-19.262-18.233-30.192-13.212-5.275 2.404-8.918 6.92-10.719 12.293l-1.214 7.652c0 1.892.168 3.785.608 5.708 1.78 21.035 6.762 77.193-17.188 126.656-1.697 3.983-2.463 8.204-2.424 12.37-.025.131-.066.258-.087.392-2.22 13.026 7.118 25.447 20.872 27.747.952.158 1.893.243 2.827.289 3.38.304 6.74-.152 9.894-1.31 27.868-5.812 91.07-33.579 124.254-57.37 61.93 34.542 133.278 54.386 209.374 54.386 236.998 0 429.087-190.687 429.085-425.903-.002-235.232-192.09-425.91-429.087-425.91z" fill="#df911d" /><path d="M226.17 426.224v168.852h36.718v-99.638c0-6.086.928-11.837 2.902-17.32 1.913-5.42 4.619-10.17 8.044-14.18 3.43-4.01 7.652-7.224 12.597-9.495 4.943-2.277 10.548-3.414 16.745-3.414 10.945 0 18.99 3.01 24.128 8.966 5.14 6.015 7.912 15.647 8.376 28.889v106.192h36.72V479.117c0-19.19-5.207-33.565-15.755-43.133-10.547-9.561-24.924-14.378-43.184-14.378-10.945 0-20.9 2.673-29.935 8.026-9.032 5.353-16.287 12.704-21.89 22.066l-.66-.67v-24.805h-34.807zM559.65 483.669c-3.098-11.904-8.107-22.403-14.97-31.567-6.857-9.162-15.495-16.515-25.91-22.066-10.416-5.617-22.153-8.363-35.271-8.363-12.46 0-23.6 2.342-33.492 7.159-9.894 4.745-18.328 11.234-25.254 19.392-6.99 8.158-12.33 17.655-16.089 28.42-3.757 10.837-5.603 22.203-5.603 34.174 0 13.04 1.714 25.01 5.278 35.914 3.49 10.896 8.767 20.194 15.753 28.086 6.994 7.888 15.499 13.972 25.585 18.321 10.083 4.348 21.689 6.556 34.81 6.556 8.966 0 17.668-1.27 25.913-3.745 8.24-2.539 15.754-6.219 22.414-11.168 6.595-4.883 12.329-10.902 17.013-18.123 4.748-7.157 8.106-15.316 10.02-24.48h-34.808c-3.235 9.364-8.115 16.389-14.638 21.068-6.53 4.683-15.166 7.02-25.913 7.02-7.714 0-14.374-1.337-19.979-4.077-5.603-2.74-10.15-6.418-13.843-10.97-3.692-4.546-6.399-9.897-8.245-15.98-1.768-6.041-2.666-12.285-2.679-18.79H562.09c1.449-12.644.66-24.945-2.44-36.781zM439.722 495.77c.195-6.287 1.449-12.169 3.69-17.654 2.24-5.418 5.273-10.168 9.035-14.179 3.757-4.01 8.304-7.224 13.51-9.495 5.212-2.277 11.076-3.414 17.54-3.414 6.197 0 11.867 1.27 16.947 3.746 5.011 2.54 9.297 5.821 12.85 9.83 3.563 4.017 6.334 8.761 8.376 14.18 2.043 5.484 3.295 11.101 3.692 16.985h-85.64zM695.73 469.688h.66l30.922 125.456h37.716l52.154-168.92h-37.386l-33.823 126.122h-.66L715.38 426.224h-37.052l-31.253 126.122h-.66L613.91 426.224h-38.964l51.56 168.92h38.632z" fill="#df911d" /></symbol><symbol class="icon" viewBox="0 0 1024 1024" id="point"><defs><style></style></defs><path d="M512 624a112 112 0 100-224 112 112 0 000 224z" fill="#2c2c2c" /></symbol><symbol class="icon" viewBox="0 0 1024 1024" id="question"><defs><style></style></defs><path d="M512 77C271.8 77 77 271.8 77 512s194.8 435 435 435 435-194.8 435-435S752.2 77 512 77zm-2.8 739.4c-35.4 0-64.2-28.2-64.2-62.9s28.7-62.9 64.2-62.9c35.4 0 64.2 28.2 64.2 62.9s-28.7 62.9-64.2 62.9zm172.4-355.9c-12.6 19.8-39.3 46.7-80.3 80.8-21.2 17.6-34.4 31.8-39.5 42.6-5.1 10.7-7.5 29.9-7 57.6h-91.4c-.2-13.1-.4-21.1-.4-24 0-29.6 4.9-53.9 14.7-73 9.8-19.1 29.4-40.6 58.7-64.4 29.3-23.9 46.9-39.5 52.6-46.9 8.8-11.7 13.3-24.6 13.3-38.6 0-19.5-7.9-36.2-23.5-50.2-15.6-13.9-36.8-20.9-63.3-20.9-25.6 0-47 7.3-64.2 21.8-17.2 14.5-32 46.5-35.5 66.3-3.3 18.7-93.4 26.6-92.3-11.3 1.1-37.9 20.8-79 54.6-108.8 33.8-29.8 78.2-44.7 133.1-44.7 57.8 0 103.7 15.1 137.9 45.3 34.2 30.2 51.2 65.3 51.2 105.4.1 22.2-6.2 43.2-18.7 63z" fill="#d4237a" /></symbol></defs></svg>