<svg xmlns="http://www.w3.org/2000/svg" xmlns:xlink="http://www.w3.org/1999/xlink"><defs><symbol class="icon" viewBox="0 0 1024 1024" id="A"><defs><style></style></defs><path d="M182.034 872.396l283.734-740h106.703l301.813 740H762.721l-85.422-224H366.752l-81.031 224H182.034zm212.562-304h251.89l-77.219-204.844c-23.844-62.172-41.516-113.563-53.047-154.156-9.516 47.656-22.765 94.906-39.765 141.75l-81.859 217.25z" fill="#d4237a" /></symbol><symbol class="icon" viewBox="0 0 1024 1024" id="Q"><defs><style></style></defs><path d="M683.257 885.856l-58.604-34.058q.682-.898 1.297-1.796l58.604 34.058q-.615.898-1.297 1.796" fill="#d4237a" /><path d="M684.554 884.06l-58.604-34.058a67.245 67.245 0 001.93-2.894l58.603 34.058a67.246 67.246 0 01-1.929 2.894" fill="#d4237a" /><path d="M686.483 881.166l-58.603-34.058a84.076 84.076 0 001.779-2.893l58.603 34.058a84.073 84.073 0 01-1.779 2.893" fill="#d4237a" /><path d="M688.262 878.273l-58.603-34.058a74.05 74.05 0 001.663-3.01l58.587 34.058a87.226 87.226 0 01-1.663 3.01M689.925 875.263l-58.586-34.058c.548-1.048 1.08-2.096 1.663-3.193l58.603 34.058c-.532 1.08-1.064 2.145-1.663 3.193" fill="#d4237a" /><path d="M691.555 872.07l-58.603-34.058q.831-1.663 1.663-3.492l58.603 34.057q-.765 1.797-1.663 3.493" fill="#d4237a" /><path d="M693.152 868.577l-58.604-34.057c.549-1.28 1.081-2.595 1.663-3.925l58.47 34.058c-.515 1.33-1.047 2.644-1.662 3.924" fill="#d4237a" /><path d="M694.682 864.653l-58.537-34.058c.582-1.513 1.147-3.06 1.663-4.623l58.537 34.058c-.533 1.563-1.081 3.11-1.663 4.623" fill="#d4237a" /><path d="M696.345 860.03l-58.537-34.058c.631-1.88 1.214-3.792 1.762-5.754l58.604 34.041a111.684 111.684 0 01-1.763 5.77" fill="#d4237a" /><path d="M698.174 854.26l-58.604-34.042c.699-2.528 1.33-5.105 1.896-7.783l58.604 34.025a126.301 126.301 0 01-1.896 7.766" fill="#d4237a" /><path d="M700.07 846.46l-58.604-34.025a162.19 162.19 0 001.513-8.165l58.604 34.058a162.19 162.19 0 01-1.513 8.165M701.583 838.328l-58.604-34.058h18.41l58.603 34.058h-18.409zM623.44 915.041L564.835 881l.216.116 58.604 34.058-.217-.133" fill="#d4237a" /><path d="M623.656 915.174l-58.604-34.058a33.792 33.792 0 003.492 1.663l58.604 34.058a33.792 33.792 0 01-3.492-1.663" fill="#d4237a" /><path d="M627.148 916.887l-58.604-34.058a28.653 28.653 0 003.093 1.098l58.604 34.041a28.653 28.653 0 01-3.093-1.097" fill="#d4237a" /><path d="M630.241 917.968l-58.62-34.041a28.537 28.537 0 002.81.648l58.604 34.058a27.49 27.49 0 01-2.81-.648M633.051 918.633l-58.603-34.058a23.88 23.88 0 002.644.316l58.604 34.058a23.88 23.88 0 01-2.645-.316" fill="#d4237a" /><path d="M635.696 918.95l-58.604-34.059h2.578l58.603 34.058h-2.577" fill="#d4237a" /><path d="M638.273 918.983l-58.603-34.058c.881 0 1.663-.133 2.627-.266l58.604 34.057c-.882.134-1.746.217-2.628.267" fill="#d4237a" /><path d="M640.9 918.716l-58.603-34.008a21.985 21.985 0 002.827-.598l58.604 34.058c-.948.25-1.896.449-2.827.598M643.728 918.118l-58.604-34.058a25.543 25.543 0 003.443-1.18l58.603 34.057a28.088 28.088 0 01-3.442 1.18M647.17 916.937l-58.603-34.058a31.813 31.813 0 003.924-1.946 100.993 100.993 0 0020.605-15.781l58.603 34.058a100.993 100.993 0 01-20.604 15.781 31.813 31.813 0 01-3.925 1.946" fill="#d4237a" /><path d="M671.7 899.21l-58.604-34.058c1.995-1.963 3.924-4.041 5.82-6.203l58.604 34.074a121.882 121.882 0 01-5.82 6.203" fill="#d4237a" /><path d="M677.52 893.023l-58.604-34.058a123.541 123.541 0 004.274-5.221l58.603 34.058a135.123 135.123 0 01-4.273 5.221M681.793 887.785l-58.62-34.058c.5-.632.981-1.28 1.464-1.929l58.603 34.058a83.878 83.878 0 01-1.463 1.929M578.639 1020.857l-58.57-34.058q-19.325-11.242-47.479-73.171l58.604 34.058q28.137 61.913 47.478 73.171M505.7 931.04l-58.603-34.059a53.598 53.598 0 0011.025-8.148l58.62 34.124a54.197 54.197 0 01-11.025 8.149" fill="#d4237a" /><path d="M516.742 922.957L458.14 888.9a34.01 34.01 0 001.862-1.962l58.604 34.058a34.01 34.01 0 01-1.863 1.962" fill="#d4237a" /><path d="M518.588 920.928l-58.603-34.058c.382-.465.765-.914 1.13-1.38l58.604 34.141c-.366.466-.748.915-1.13 1.38" fill="#d4237a" /><path d="M519.719 919.631l-58.604-34.058c.283-.366.55-.732.815-1.114l58.604 34.058c-.266.382-.532.748-.815 1.114M520.534 918.434l-58.67-34.058c.233-.316.449-.649.665-.981l58.604 34.058c-.217.332-.433.665-.666.98M521.2 917.453l-58.604-34.058.548-.915 58.587 34.058-.549.915" fill="#d4237a" /><path d="M521.731 916.538l-58.603-34.058v-.133l58.603 34.041-.083.15M386.447 959.726l-58.603-34.058.565.332 58.62 34.042-.565-.316M387.03 960.042L328.426 926a54.53 54.53 0 005.504 2.678l58.604 34.058a51.253 51.253 0 01-5.504-2.694" fill="#d4237a" /><path d="M392.517 962.736l-58.603-34.058c1.496.615 3.06 1.197 4.673 1.663l1.78.549 58.603 34.057-1.78-.548c-1.663-.533-3.176-1.115-4.673-1.663" fill="#d4237a" /><path d="M398.97 965.014l-58.604-34.058a61.115 61.115 0 006.486 1.497l58.603 34.058a61.115 61.115 0 01-6.485-1.497" fill="#d4237a" /><path d="M405.455 966.51l-58.603-34.057a66.203 66.203 0 006.868.798l58.604 34.058a66.203 66.203 0 01-6.869-.798M412.324 967.309L353.77 933.25a66.52 66.52 0 007.517 0l58.603 34.058a70.594 70.594 0 01-7.517 0" fill="#d4237a" /><path d="M419.84 967.375l-58.603-34.058a78.992 78.992 0 008.63-.864l58.604 34.058a78.992 78.992 0 01-8.63.864M428.471 966.51l-58.603-34.057a94.79 94.79 0 0010.66-2.262l58.603 34.058a98.681 98.681 0 01-10.66 2.262" fill="#d4237a" /><path d="M439.13 964.249l-58.603-34.058a123.909 123.909 0 0015.233-5.255l58.587 34.058a122.761 122.761 0 01-15.216 5.255" fill="#d4237a" /><path d="M454.347 958.994l-58.587-34.058a177.94 177.94 0 0021.336-10.643l29.934-17.312 58.604 34.058-29.934 17.312a178.156 178.156 0 01-21.353 10.643M521.831 916.388l-58.604-34.041q-14.068-71.508-32.66-111.42-7.534-16.064-18.01-22.15l58.603 34.057q10.51 6.12 18.01 22.134 18.592 39.829 32.661 111.42M332.284 887.652l-58.603-34.058q1.762-5.654 3.592-11.125l58.603 34.058q-1.813 5.454-3.592 11.125" fill="#d4237a" /><path d="M335.876 876.527l-58.603-34.058q4.19-12.573 8.63-24.08l58.604 34.058q-4.44 11.524-8.63 24.08M344.507 852.447l-58.604-34.058q3.626-9.38 7.367-18.077l58.604 34.058q-3.775 8.68-7.367 18.077" fill="#d4237a" /><path d="M351.874 834.37l-58.604-34.058q3.21-7.384 6.536-14.285l58.604 34.058q-3.326 6.885-6.536 14.285" fill="#d4237a" /><path d="M358.41 820.085l-58.604-34.058q2.943-6.12 5.987-11.824l58.603 34.008q-3.043 5.72-5.986 11.824" fill="#d4237a" /><path d="M364.396 808.211l-58.603-34.008a284.619 284.619 0 015.62-10.11l58.604 34.14c-1.896 3.326-3.775 6.652-5.62 10.111M370.017 798.233l-58.603-34.14a280.168 280.168 0 013.575-5.938c.383-.632.782-1.264 1.18-1.895l58.604 34.057c-.399.632-.798 1.264-1.18 1.896a243.594 243.594 0 00-3.576 5.937" fill="#d4237a" /><path d="M374.773 790.317L316.17 756.26c1.18-1.83 2.411-3.659 3.675-5.472l58.604 34.141a165.378 165.378 0 00-3.676 5.472" fill="#d4237a" /><path d="M378.449 784.93l-58.604-34.142q2.145-3.076 4.473-6.07l58.604 34.058q-2.328 2.994-4.473 6.07" fill="#d4237a" /><path d="M382.922 778.776l-58.604-34.058a165.018 165.018 0 015.837-7.1l58.537 34.008q-3.043 3.492-5.837 7.1" fill="#d4237a" /><path d="M388.692 771.626l-58.537-34.009q4.291-4.988 9.047-9.628l58.604 34.058a174.91 174.91 0 00-9.047 9.628" fill="#d4237a" /><path d="M397.806 762.047l-58.604-34.058a219.83 219.83 0 0144.9-33.626 165.4 165.4 0 0119.557-9.712l58.604 34.058a165.4 165.4 0 00-19.524 9.679 219.83 219.83 0 00-44.9 33.625" fill="#d4237a" /><path d="M462.196 718.71L403.66 684.65a109.474 109.474 0 0113.487-4.656l58.604 34.058a109.474 109.474 0 00-13.487 4.656" fill="#d4237a" /><path d="M475.683 714.053l-58.603-34.058a82.65 82.65 0 019.18-1.962l58.603 34.058a79.042 79.042 0 00-9.18 1.962" fill="#d4237a" /><path d="M484.863 712.09l-58.604-34.057a66.869 66.869 0 017.317-.732l58.604 34.058a66.869 66.869 0 00-7.317.732" fill="#d4237a" /><path d="M492.18 711.359l-58.587-34.058a55.278 55.278 0 016.22 0l58.636 34.108a54.878 54.878 0 00-6.202 0" fill="#d4237a" /><path d="M498.45 711.409l-58.587-34.058a51.553 51.553 0 015.604.648l58.603 34.058a51.403 51.403 0 00-5.62-.648" fill="#d4237a" /><path d="M504.004 712.057L445.4 678q2.644.483 5.189 1.198l58.603 34.058q-2.544-.715-5.188-1.198" fill="#d4237a" /><path d="M509.192 713.255l-58.603-34.058a47.412 47.412 0 014.989 1.763l58.57 34.124a47.412 47.412 0 00-4.989-1.763" fill="#d4237a" /><path d="M514.148 715.084l-58.604-34.124a46.397 46.397 0 014.84 2.361l58.603 34.058a46.397 46.397 0 00-4.839-2.361" fill="#d4237a" /><path d="M518.987 717.379l-58.603-34.058.532.3 58.603 34.057-.532-.299M581.599 828.55l-58.537-34.058.748-1.065 58.604 34.058-.749 1.064" fill="#d4237a" /><path d="M582.414 827.485l-58.604-34.058c1.164-1.663 2.328-3.326 3.459-5.172l58.604 34.058a139.72 139.72 0 01-3.46 5.172" fill="#d4237a" /><path d="M585.873 822.313l-58.604-34.058c1.164-1.812 2.295-3.675 3.326-5.587l58.604 34.058a151.043 151.043 0 01-3.41 5.587M589.282 816.726l-58.604-34.058a181.09 181.09 0 003.476-6.236l58.603 34.057a181.09 181.09 0 01-3.475 6.237" fill="#d4237a" /><path d="M592.757 810.49l-58.603-34.058q1.846-3.443 3.608-7.135l58.604 34.058a203.409 203.409 0 01-3.609 7.134" fill="#d4237a" /><path d="M596.366 803.355l-58.604-34.058c1.33-2.744 2.611-5.587 3.892-8.514l58.603 34.124c-1.28 2.927-2.56 5.77-3.891 8.515M600.257 794.907l-58.57-34.124q2.195-4.99 4.274-10.494l58.603 34.058q-2.078 5.438-4.273 10.494" fill="#d4237a" /><path d="M604.531 784.347l-58.603-34.058a568.03 568.03 0 004.989-13.72l58.603 34.059c-1.663 4.756-3.226 9.33-4.989 13.72" fill="#d4237a" /><path d="M609.454 770.628L550.85 736.57q3.077-9.213 5.87-19.324l58.604 34.058q-2.794 10.11-5.87 19.324" fill="#d4237a" /><path d="M615.324 751.304l-58.67-34.058q4.024-14.451 7.5-30.715l58.604 34.058q-3.493 16.264-7.5 30.715M622.824 720.589L564.22 686.53q3.942-18.476 7.201-39.33 1.896-12.073 3.542-24.845l58.604 34.058q-1.663 12.772-3.542 24.845-3.326 20.854-7.2 39.33" fill="#d4237a" /><path d="M633.567 656.414l-58.62-34.058q12.372-95.405 11.99-231.055-.582-206.875-40.178-292.935-14.684-31.846-36.669-44.618l58.67 34.058q21.919 12.739 36.586 44.618 39.596 86.06 40.178 292.935.399 135.65-11.99 231.055" fill="#d4237a" /><path d="M683.257 885.856q13.803-18.51 18.293-47.528h18.409q-13.653 71.724-36.586 114.263t-55.21 61.148q-23.016 13.304-43.804 9.38t-53.215-75.417q-4.623 7.983-18.443 15.948L475.8 984.953q-101.492 58.62-180.235-2.128T216.141 673.21q-.598-211.93 68.183-376.35T473.189 63.194Q583.927-.764 658.096 75.716t74.834 298.872q.532 185.34-38.431 303.262t-94.225 197.546q9.28 31.763 23.165 39.645a26.026 26.026 0 0027.656 0 106.431 106.431 0 0032.162-29.185zm-101.658-57.307q32.378-45.216 48.36-147.29t15.532-255.9q-.566-206.875-40.178-292.935T473.305 99.78q-78.592 45.366-124.524 178.139t-45.333 344.97q.3 106.064 7.5 173.581t21.336 91.182q18.293-58.304 41.309-95.439t69.146-63.825q55.345-31.963 85.495-4.274t53.365 104.435m-75.965 102.49c7.683-4.44 13.07-9.296 16.13-14.65q-14.068-71.509-32.66-111.338t-55.51-18.459q-18.477 10.677-43.787 46.564t-25.161 83.631q.1 37.168 32.478 47.695t78.51-16.115l29.933-17.311" fill="#d4237a" /><path d="M313.609 995.047l-58.604-34.057a167.196 167.196 0 01-18.027-12.157q-78.725-60.666-79.44-309.68a1149.122 1149.122 0 019.113-150.734l58.603 34.058a1149.122 1149.122 0 00-9.113 150.733q.715 248.999 79.424 309.615a167.196 167.196 0 0018.027 12.156" fill="#d4237a" /><path d="M225.254 522.477l-58.603-34.058q5.155-39.812 13.304-77.628l58.537 34.058q-8.082 37.816-13.304 77.628" fill="#d4237a" /><path d="M238.492 444.85l-58.604-34.092q5.671-26.608 12.755-52.068l58.604 34.058q-7.084 25.543-12.755 52.068" fill="#d4237a" /><path d="M251.247 392.781l-58.604-34.058q5.738-20.604 12.39-40.577l58.603 34.058q-6.652 19.956-12.39 40.577" fill="#d4237a" /><path d="M263.636 352.204l-58.603-34.058q5.72-17.311 12.24-34.124l58.603 34.041q-6.486 16.846-12.24 34.141" fill="#d4237a" /><path d="M275.876 318.063l-58.604-34.041q4.108-10.693 8.448-21.27 1.796-4.307 3.642-8.564l58.604 34.041q-1.846 4.274-3.642 8.581-4.424 10.494-8.515 21.203" fill="#d4237a" /><path d="M288.032 288.28l-58.604-34.042q5.721-13.138 11.741-25.66l58.604 34.058q-6.037 12.489-11.74 25.643" fill="#d4237a" /><path d="M299.773 262.636l-58.604-34.058q5.571-11.541 11.425-22.567l58.603 34.058q-5.87 11.01-11.424 22.567" fill="#d4237a" /><path d="M311.197 240.07l-58.603-34.059q5.587-10.526 11.425-20.538l58.603 34.042q-5.837 9.978-11.425 20.538" fill="#d4237a" /><path d="M322.622 219.515l-58.653-34.042q5.737-9.828 11.64-19.174l58.604 34.058q-5.97 9.363-11.64 19.174M334.33 200.357L275.726 166.3q6.07-9.479 12.356-18.459l58.604 34.058q-6.32 8.98-12.356 18.46M346.686 181.898l-58.604-34.058q6.652-9.529 13.653-18.509l58.687 34.041q-6.968 9.014-13.653 18.526" fill="#d4237a" /><path d="M360.422 163.372l-58.687-34.04q7.816-9.979 15.948-19.425l58.604 34.058q-8.149 9.38-15.948 19.407M376.287 143.965l-58.604-34.058q10.577-12.173 21.752-23.281l58.603 34.058q-11.175 11.058-21.751 23.281" fill="#d4237a" /><path d="M398.038 120.75l-58.603-34.058a370.43 370.43 0 0175.15-57.589 268.389 268.389 0 0131.231-15.549l58.604 34.058a265.778 265.778 0 00-31.231 15.582 370.43 370.43 0 00-75.15 57.59M504.42 47.612l-58.604-34.058a198.394 198.394 0 0123.88-8.198l58.687 34.058a198.394 198.394 0 00-23.88 8.198" fill="#d4237a" /><path d="M528.383 39.414L469.696 5.356a157.501 157.501 0 0117.661-3.692l58.604 34.058a157.501 157.501 0 00-17.578 3.692M545.96 35.655L487.358 1.664A134.253 134.253 0 01502.157.2l58.604 34.042a138.493 138.493 0 00-14.8 1.48M560.761 34.175L502.158.134a121.049 121.049 0 0113.47.116l58.604 34.058a125.173 125.173 0 00-13.47-.133" fill="#d4237a" /><path d="M574.232 34.308L515.628.25a114.38 114.38 0 0112.689 1.497l58.603 34.058a114.38 114.38 0 00-12.688-1.497M586.92 35.805L528.383 1.747a112.983 112.983 0 0112.373 2.86l58.603 34.058a112.983 112.983 0 00-12.372-2.86" fill="#d4237a" /><path d="M599.293 38.665L540.689 4.607a115.394 115.394 0 0112.39 4.374l58.603 34.058a115.394 115.394 0 00-12.39-4.374M611.682 43.039L553.078 8.98a121.132 121.132 0 0112.789 6.27l58.603 34.057a121.132 121.132 0 00-12.788-6.27" fill="#d4237a" /><path d="M624.47 49.308L565.867 15.25l1.413.815 58.604 34.058-1.414-.815" fill="#d4237a" /></symbol><symbol class="icon" viewBox="0 0 1024 1024" id="baby"><defs><style></style></defs><path d="M825.173 337.92c0 173.227-104.106 663.04-314.026 663.04S197.973 511.147 197.973 337.92 337.92 23.893 511.147 23.893 825.173 163.84 825.173 337.92z" fill="#F48FB1" /><path d="M512 1017.173c-124.587 0-205.653-151.04-251.733-278.186-52.054-143.36-79.36-310.614-79.36-401.92C180.907 154.453 329.387 5.973 512 5.973s331.093 148.48 331.093 331.094c0 145.92-69.973 487.253-203.946 620.373-40.107 40.107-82.774 59.733-127.147 59.733zm-.853-976.213c-163.84 0-296.96 133.12-296.96 296.96 0 165.547 102.4 645.12 296.96 645.973 35.84 0 69.973-16.213 102.4-49.493 71.68-70.827 117.76-199.68 145.066-294.4 34.134-121.173 48.64-238.933 48.64-302.08.854-163.84-132.266-296.96-296.106-296.96z" fill="#EC407A" /><path d="M825.173 337.92c0 173.227-104.106 663.04-314.026 663.04S197.973 511.147 197.973 337.92c0 91.307 132.267 224.427 305.494 224.427s279.893-115.2 321.706-224.427z" fill="#FCE4EC" /><path d="M512 1017.173c-124.587 0-205.653-151.04-251.733-278.186-52.054-143.36-79.36-310.614-79.36-401.92 0-9.387 7.68-17.067 17.066-17.067s17.067 7.68 17.067 17.067c0 81.92 123.733 207.36 288.427 207.36 164.693 0 266.24-110.08 306.346-213.334 2.56-7.68 11.094-11.946 18.774-10.24 7.68 1.707 13.653 8.534 13.653 17.067 0 145.92-69.973 487.253-203.947 620.373-39.253 39.254-81.92 58.88-126.293 58.88zM223.573 444.587C251.733 651.093 349.867 983.04 512 983.04c35.84 0 69.973-16.213 102.4-49.493 71.68-70.827 117.76-199.68 145.067-294.4 22.186-80.214 36.693-159.574 43.52-221.867-57.174 87.04-157.014 162.133-299.52 162.133-124.587 0-226.134-64-279.894-134.826z" fill="#EC407A" /><path d="M816.64 343.893c-8.533 190.294-112.64 640-313.173 639.147 2.56.853 122.026-127.147 173.226-280.747 52.907-157.866 92.16-257.706 131.414-359.253 2.56-6.827 8.533-7.68 8.533.853z" fill="#F8BBD0" /><path d="M720.213 362.667c0 115.2-93.866 209.066-209.066 209.066s-209.92-93.866-209.92-209.066c0-62.294 27.306-117.76 69.973-156.16 36.693-33.28 86.187-52.907 139.093-52.907 116.054 0 209.92 93.013 209.92 209.067z" fill="#FFF" /><path d="M511.147 588.8c-124.587 0-226.134-101.547-226.134-226.133 0-64 27.307-125.44 75.094-168.96 40.96-36.694 94.72-57.174 151.04-57.174 124.586 0 226.133 101.547 226.133 226.134S635.733 588.8 511.147 588.8zm0-418.133c-46.934 0-93.014 17.066-128 48.64-40.96 36.693-64 88.746-64 143.36-.854 105.813 85.333 192 192 192s192-86.187 192-192-86.187-192-192-192z" fill="#EC407A" /><path d="M209.92 473.6c212.48 99.84 367.787 271.36 438.613 443.733 0 0 42.667-43.52 69.12-112.64 0 0-135.68-307.2-519.68-453.973 0 0 11.947 75.093 11.947 122.88z" fill="#FFF" /><path d="M648.533 934.4h-3.413c-5.973-.853-10.24-5.12-12.8-10.24-73.387-180.907-233.813-343.04-430.08-435.2-5.973-2.56-9.387-8.533-10.24-15.36-.853-45.227-11.947-119.467-12.8-120.32-.853-5.973 1.707-11.947 5.973-16.213 5.12-3.414 11.094-5.12 17.067-2.56 385.707 147.626 523.947 450.56 529.067 463.36 1.706 4.266 1.706 8.533 0 12.8C704 882.347 660.48 927.573 658.773 929.28c-1.706 3.413-5.973 5.12-10.24 5.12zM226.987 462.507c189.44 91.306 346.453 247.466 425.813 422.4 12.8-17.067 31.573-44.374 45.227-79.36C676.693 762.88 540.16 512 217.6 377.173c4.267 23.894 8.533 57.174 9.387 85.334z" fill="#EC407A" /><path d="M826.027 350.72c-384 146.773-519.68 453.973-519.68 453.973 26.453 69.12 69.12 112.64 69.12 112.64C445.44 744.96 600.747 573.44 814.08 473.6c0-47.787 11.947-122.88 11.947-122.88z" fill="#FFF" /><path d="M375.467 934.4c-4.267 0-8.534-1.707-11.947-5.12-1.707-1.707-45.227-46.933-72.533-118.613-1.707-4.267-1.707-8.534 0-12.8 5.973-12.8 143.36-314.88 529.066-463.36 5.974-2.56 11.947-.854 17.067 2.56 5.12 3.413 6.827 10.24 5.973 16.213 0 .853-11.946 75.093-12.8 120.32 0 6.827-4.266 12.8-10.24 15.36-195.413 92.16-355.84 254.293-430.08 435.2-2.56 5.12-6.826 9.387-12.8 10.24h-1.706zM325.12 805.547c14.507 34.986 32.427 62.293 45.227 79.36 79.36-174.934 236.373-331.094 425.813-422.4.853-28.16 5.12-61.44 8.533-85.334C482.987 512 346.453 762.88 325.12 805.547zM377.173 203.947s57.174 54.613 53.76 98.986c11.094 0 27.307-29.013 27.307-90.453 0-67.413 65.707 40.107 69.12 70.827 17.067-11.947 52.907-58.027 54.613-74.24 17.067 23.893 40.96 52.906 39.254 89.6 19.626-5.12 39.253-32.427 30.72-89.6-70.827-87.04-240.64-46.08-274.774-5.12z" fill="#EC407A" /><path d="M430.933 320c-5.12 0-9.386-1.707-12.8-5.12-3.413-3.413-5.12-8.533-4.266-12.8 2.56-29.867-34.134-71.68-48.64-85.333-6.827-5.974-6.827-16.214-.854-23.04 25.6-29.867 96.427-52.907 162.134-52.054 42.666 0 100.693 10.24 138.24 57.174 1.706 2.56 3.413 5.12 3.413 8.533 10.24 69.12-17.067 101.547-43.52 109.227-5.12 1.706-11.093 0-15.36-3.414s-6.827-8.533-5.973-14.506c1.706-19.627-7.68-37.547-18.774-54.614-14.506 22.187-35.84 46.934-47.786 54.614-5.12 3.413-11.094 4.266-16.214 1.706-5.12-2.56-9.386-7.68-10.24-13.653-1.706-14.507-21.333-49.493-35.84-67.413C473.6 280.747 456.533 320 430.933 320zM581.12 191.147c5.12 0 11.093 2.56 14.507 7.68 1.706 3.413 4.266 5.973 6.826 9.386 11.094 15.36 23.04 32.427 29.867 52.907 3.413-11.093 5.12-25.6 2.56-46.08-29.013-33.28-75.093-40.107-109.227-40.96-15.36 0-30.72.853-45.226 3.413 21.333 11.947 41.813 47.787 53.76 74.24 13.653-16.213 29.013-38.4 29.866-45.226.854-6.827 5.974-12.8 12.8-15.36 1.707.853 2.56 0 4.267 0zM401.92 204.8c10.24 11.947 25.6 30.72 34.987 51.2 1.706-11.093 3.413-25.6 3.413-44.373 0-11.947 2.56-20.48 5.12-26.454-17.92 5.974-33.28 12.8-43.52 19.627zM413.013 378.88a17.92 17.92 0 1035.84 0 17.92 17.92 0 10-35.84 0z" fill="#EC407A" /><path d="M430.933 413.867c-19.626 0-34.986-15.36-34.986-34.987s15.36-34.987 34.986-34.987 34.987 15.36 34.987 34.987-15.36 34.987-34.987 34.987zm0-35.84c-.853 0-.853.853-.853.853 0 .853 1.707.853 1.707 0s0-.853-.854-.853zM574.293 378.88a17.92 17.92 0 1035.84 0 17.92 17.92 0 10-35.84 0z" fill="#EC407A" /><path d="M592.213 413.867c-19.626 0-34.986-15.36-34.986-34.987s15.36-34.987 34.986-34.987 34.987 15.36 34.987 34.987-15.36 34.987-34.987 34.987zm0-35.84c-.853 0-.853.853-.853.853" fill="#EC407A" /></symbol><symbol class="icon" viewBox="0 0 1024 1024" id="blackMoney"><defs><style></style></defs><path d="M463.3 958.3V772.1H228.8v-77.5h234.5v-80.5H228.8v-83.5H420L191.5 128h113.7L469 420.6c18.2 33.4 32.4 62.4 42.7 86.9 9-19.8 24.6-50.5 46.8-92.1L713.9 128h120.8L605.5 530.6h192.9v83.5H564.9v80.5h233.5v77.5H564.9v186.2H463.3z" /></symbol><symbol class="icon" viewBox="0 0 1024 1024" id="car"><defs><style></style></defs><path d="M949.332 569.276c-3.657-48.948-35.242-92.183-80.49-112.342l-40.648-191.109c-14.878-69.887-85.075-126.727-156.524-126.727H351.41c-71.45 0-141.667 56.839-156.524 126.727L154.22 456.934c-45.25 20.178-76.814 63.394-80.472 112.342l-9.206 122.598c-3.945 52.668 26.015 100.158 73.032 119.37 10.809 42.332 48.99 73.218 94.198 73.218 42.003 0 77.758-26.221 91.362-64.053h376.812c13.605 37.832 49.36 64.053 91.342 64.053 45.209 0 83.43-30.886 94.239-73.218 47.018-19.212 76.956-66.681 72.991-119.37l-9.185-122.598zm-94.383 194.458c-11.897 2.775-20.508 13.09-21.125 25.296-1.13 22.831-19.809 40.73-42.536 40.73-22.151 0-40.359-16.81-42.332-39.107-1.233-14.117-13.068-24.925-27.248-24.925H301.352c-14.179 0-25.995 10.808-27.249 24.925-1.973 22.297-20.159 39.106-42.33 39.106-22.708 0-41.386-17.877-42.517-40.729-.597-12.207-9.227-22.521-21.105-25.296-31.358-7.274-51.517-35.139-49.071-67.771l9.205-122.577c2.385-31.851 26.407-60.764 58.442-70.279a27.403 27.403 0 0019.358-22.974c.165-1.561.288-3.144.41-4.685.063-.802.063-1.623.206-2.364l41.674-195.875c9.617-45.23 56.798-83.41 103.035-83.41h320.26c46.216 0 93.397 38.18 103.035 83.41l41.652 195.855c.166.822.166 1.623.228 2.424.102 1.521.226 3.043.41 4.584 1.274 10.85 8.899 19.911 19.38 23.035 32.014 9.515 56.037 38.428 58.42 70.28l9.187 122.576c2.464 32.612-17.715 60.497-49.033 67.771zm-554.09-280.99H722.2c10.151 0 18.885-3.76 24.248-10.233 5.795-6.68 8.138-15.824 6.617-25.75-.123-.657-.246-1.315-.391-1.972l-33.104-143.846c-4.153-22.686-26.592-41.632-49.69-41.632H353.218c-23.097 0-45.578 18.946-49.728 41.632L270.405 444.79a22.005 22.005 0 00-.39 1.972c-1.54 9.925.801 19.07 6.268 25.359 5.711 6.863 14.424 10.624 24.576 10.624zm55.75-168.73h309.863l26.22 114.028H330.368l26.24-114.028zm-88.692 262.414c-34.13 0-61.811 27.68-61.811 61.812 0 34.152 27.68 61.812 61.811 61.812 34.133 0 61.793-27.66 61.793-61.812 0-34.132-27.66-61.812-61.793-61.812zm487.246 0c-34.133 0-61.812 27.68-61.812 61.812 0 34.152 27.68 61.812 61.812 61.812 34.151 0 61.81-27.66 61.81-61.812 0-34.132-27.659-61.812-61.81-61.812z" fill="#7dc5eb" /></symbol><symbol class="icon" viewBox="0 0 1024 1024" id="caution"><defs><style></style></defs><path d="M510.4 89.6C277 89.6 87.8 278.8 87.8 512.2S277 934.8 510.4 934.8 933 745.6 933 512.2 743.8 89.6 510.4 89.6zm-29.5 191.7c0-16.3 13.2-29.6 29.6-29.6 16.3 0 29.6 13.2 29.6 29.6v330.8c0 16.3-13.2 29.6-29.6 29.6-16.3 0-29.6-13.2-29.6-29.6V281.3zm29.5 491.4c-16.3 0-29.6-13.2-29.6-29.6s13.2-29.6 29.6-29.6 29.6 13.2 29.6 29.6-13.2 29.6-29.6 29.6z" fill="#d4237a" /></symbol><symbol class="icon" viewBox="0 0 1024 1024" id="diamond"><defs><style></style></defs><path d="M631.825 193.069c-2.904 0-5.842-.768-8.529-2.38-7.983-4.784-10.62-15.248-5.91-23.358l54.566-93.81c4.726-8.101 15.01-10.796 23.002-6.003 7.983 4.784 10.619 15.248 5.91 23.358l-54.566 93.81c-3.131 5.38-8.73 8.383-14.473 8.383zm-218.23 0c-5.55 0-10.989-2.797-14.179-7.906l-58.763-93.81c-4.978-7.939-2.678-18.488 5.146-23.545 7.832-5.049 18.2-2.712 23.186 5.236l58.763 93.81c4.97 7.939 2.67 18.488-5.154 23.546-2.804 1.799-5.918 2.669-9 2.669zm88.128-12.797V48.087c0-9.424 7.521-17.057 16.79-17.057 9.275 0 16.789 7.633 16.789 17.057v132.185c0 9.415-7.514 17.057-16.79 17.057-9.268 0-16.79-7.642-16.79-17.057zm232.675 252.363l99.998-155.673 97.278 155.673H734.398zm-18.2 34.112h211.464L563.305 914.098l152.893-447.35zm-393.276 0l149.266 448.05-364.113-448.05h214.847zm-18.183-34.112H105.43l102.39-156.781 96.918 156.78zm32.68-11.292l-99.998-161.752 231.2.725-131.202 161.027zm343.228 45.404L517.46 944.287l-159.088-477.54h322.274zM564.614 260.623l239.695.759-102.18 159.066-137.515-159.825zm-44.727-.145l148.125 172.157H371.804L512.105 260.46l7.782.017zm323.298-33.09l-642.692-2.03L52.51 451.969 517.394 1024 983.42 451.797 843.185 227.39z" fill="#7dc5eb" /></symbol><symbol class="icon" viewBox="0 0 1109 1024" id="diamondScore"><defs><style></style></defs><path d="M304.854 0h473.258a42.667 42.667 0 0132.128 14.55l262.272 299.775a42.667 42.667 0 011.067 54.912L576.77 983.211a42.667 42.667 0 01-66.262.085L9.6 369.28a42.667 42.667 0 01.94-55.04L272.725 14.507A42.667 42.667 0 01304.854 0zm389.333 384L595.2 753.493a42.667 42.667 0 0082.432 22.059L782.507 384h185.6a42.667 42.667 0 100-85.333H797.44V85.333a42.667 42.667 0 10-85.333 0v213.334H370.774V85.333a42.667 42.667 0 10-85.334 0v213.334H114.774a42.667 42.667 0 100 85.333h176.213l104.875 391.552a42.667 42.667 0 0082.432-22.101L379.35 384h314.88z" fill="#f6b453" /></symbol><symbol class="icon" viewBox="0 0 1024 1024" id="discount"><defs><style></style></defs><path d="M346.298 673.047l21.411 13.033c16.756-27.927 29.79-57.716 36.306-94.022l-25.135-3.723c-4.655 32.581-16.756 60.509-32.582 84.712zm314.647-107.985c7.448-7.447 11.171-17.687 11.171-27.927v-7.448h-25.134v7.448c0 3.723-1.862 7.447-4.655 10.24-3.723 2.792-7.447 3.723-10.24 3.723H522.24V531.55h94.953c22.342 0 40.029-17.687 40.029-40.029v-43.753c0-22.342-17.687-40.029-40.03-40.029H522.24v-16.756h147.084v-25.135H522.24v-16.756h-25.135v16.756H349.091v25.135h147.084v16.756h-94.022c-22.342 0-40.03 18.618-40.03 40.03v43.752c0 22.342 18.619 40.03 40.03 40.03h94.952v19.548H347.23v25.135h284.858c11.171 0 20.48-3.724 28.858-11.171zM522.24 432.872h94.953c8.378 0 14.894 6.517 14.894 14.895v8.378H522.24v-23.272zm0 48.408h109.847v10.24c0 7.447-6.516 14.895-14.894 14.895H522.24V481.28zm-26.065 25.135h-94.022c-8.378 0-14.895-6.517-14.895-14.895v-10.24h109.847v25.135zm0-50.27H387.258v-8.378c0-8.378 6.517-14.894 14.895-14.894h94.952v23.272zm-26.997 192.699v-56.786h-25.134v56.786c0 22.341 13.032 40.029 40.029 40.029h119.156v-25.135H484.073c-10.24 0-14.895-6.516-14.895-14.894zm172.218-63.302l-23.272 9.309 39.098 92.16 23.273-9.31-39.099-92.16zm-93.09 58.647v-52.13H523.17v52.13h25.134z" fill="#e6c12b" /><path d="M512 158.255c9.31 0 18.618 10.24 25.135 17.687 21.41 26.996 47.476 40.96 78.196 40.96 13.964 0 27.927-2.793 42.822-9.31 8.378-3.723 15.825-5.585 21.41-5.585 5.586 0 17.688 0 21.412 30.72 7.447 50.27 38.167 80.99 88.436 88.437 10.24 1.861 24.204 4.654 27.927 13.032 4.655 7.448.931 21.411-2.793 30.72-18.618 47.477-7.447 89.368 32.582 121.019 8.378 7.447 18.618 16.756 18.618 26.065s-10.24 18.618-17.687 25.135c-40.029 31.65-51.2 73.541-32.582 121.018 3.724 10.24 7.448 23.272 2.793 30.72-4.654 7.447-17.687 11.17-27.927 13.032-50.27 7.448-80.99 38.168-88.437 88.437-4.654 30.72-15.825 30.72-21.41 30.72-5.586 0-13.033-1.862-21.411-5.586-14.895-5.585-29.79-9.309-42.822-9.309-29.79 0-55.855 13.964-78.197 40.96-7.447 8.378-16.756 18.618-26.065 18.618-9.31 0-18.618-10.24-25.135-17.687-21.41-26.996-47.476-40.96-78.196-40.96-13.964 0-27.927 2.793-42.822 9.31-8.378 3.723-15.825 5.585-21.41 5.585-5.586 0-17.688 0-21.412-30.72-7.447-50.27-38.167-80.99-88.436-88.437-10.24-1.861-24.204-4.654-27.927-13.032-4.655-7.448-.931-21.411 2.793-30.72 18.618-47.477 7.447-89.368-32.582-121.019-8.378-7.447-18.618-16.756-18.618-26.065s10.24-18.618 17.687-25.135c40.029-31.65 51.2-73.541 32.582-121.018-3.724-10.24-7.448-23.272-2.793-30.72 4.654-7.447 17.687-11.17 27.927-13.032 50.27-7.448 80.99-38.168 88.437-88.437 4.654-30.72 15.825-30.72 21.41-30.72 5.586 0 13.033 1.862 21.411 5.586 14.895 5.585 29.79 9.309 42.822 9.309 29.79 0 55.855-13.964 78.197-40.96 7.447-8.378 16.756-18.618 26.065-18.618m0-18.619c-13.033 0-26.065 8.379-40.03 25.135-17.686 23.273-39.097 34.444-63.3 34.444-11.172 0-23.274-2.793-36.306-7.448-11.171-4.654-20.48-6.516-28.859-6.516-22.341 0-35.374 15.825-40.029 46.545-6.516 41.891-30.72 67.026-72.61 72.611-41.891 6.517-55.855 28.858-40.03 68.888 15.826 40.029 6.517 72.61-26.996 99.607-33.513 26.065-33.513 53.062 0 79.127 33.513 26.066 42.822 59.578 26.996 99.607-15.825 40.03-2.792 62.371 40.03 68.888 41.89 6.516 67.025 30.72 72.61 72.61 4.655 30.72 17.688 46.546 40.03 46.546 8.378 0 17.687-1.862 28.858-6.516 13.032-4.655 25.134-7.448 36.305-7.448 24.204 0 45.615 11.171 63.302 34.444 13.033 16.756 26.065 25.135 40.029 25.135s26.065-8.379 40.03-25.135c17.686-23.273 39.097-34.444 63.3-34.444 11.172 0 23.274 2.793 36.306 7.448 11.171 4.654 20.48 6.516 28.859 6.516 22.341 0 35.374-15.825 40.029-46.545 6.516-41.891 30.72-67.026 72.61-72.611 41.891-6.517 55.855-28.859 40.03-68.888-15.826-40.029-6.517-72.61 26.996-99.607 33.513-26.065 33.513-53.062 0-79.127-33.513-26.066-42.822-59.578-26.996-99.607 15.825-40.03 2.792-62.371-40.03-68.888-41.89-6.516-67.025-30.72-72.61-72.61-4.655-30.72-17.688-46.546-40.03-46.546-8.378 0-17.687 1.862-28.858 6.516-13.032 4.655-25.134 7.448-36.305 7.448-24.204 0-45.615-11.171-63.302-34.444-13.964-16.756-26.996-25.135-40.029-25.135z" fill="#e6c12b" /><path d="M512 259.724c138.705 0 252.276 113.57 252.276 252.276S650.706 764.276 512 764.276 259.724 650.706 259.724 512 373.294 259.724 512 259.724m0-9.31c-144.29 0-261.585 117.295-261.585 261.586S367.709 773.585 512 773.585 773.585 656.291 773.585 512 656.291 250.415 512 250.415z" fill="#e6c12b" /></symbol><symbol class="icon" viewBox="0 0 1024 1024" id="doubleTrip"><defs><style></style></defs><path d="M953.681 467h-890v-44.8h710.9V288l184.4 179h-5.3zm-884.7 89.6h890v44.8h-710.9v134.3l-184.4-179.1h5.3z" fill="#8a8a8a" /></symbol><symbol class="icon" viewBox="0 0 1024 1024" id="exchange"><defs><style></style></defs><path d="M512 76.083a428.749 428.749 0 00-248.32 78.439l21.811-97.588a27.136 27.136 0 00-52.94-11.878L196.914 204.8a27.136 27.136 0 0020.48 32.358l159.642 35.636a26.829 26.829 0 005.939.614 27.136 27.136 0 006.144-53.658l-94.003-20.48A375.091 375.091 0 01512 130.253 379.7 379.7 0 01839.68 700.62a27.136 27.136 0 1046.797 27.34A433.869 433.869 0 00512 76.084zm289.792 711.578l-158.925-38.298A27.136 27.136 0 10630.17 802.1l93.593 22.63a371.405 371.405 0 01-218.214 64.82 379.7 379.7 0 01-318.362-576.103 27.136 27.136 0 00-46.387-28.16 433.869 433.869 0 00363.827 658.33H512a428.544 428.544 0 00241.971-74.24l-23.245 97.28a27.136 27.136 0 0020.48 32.666 26.42 26.42 0 006.35.716 27.136 27.136 0 0026.316-20.48l38.4-158.924a27.136 27.136 0 00-20.48-32.973z" fill="#1296db" /></symbol><symbol class="icon" viewBox="0 0 1024 1024" id="food"><defs><style></style></defs><path d="M429.6 611.2l51 69.4-221 306.8c-16.5 22.9-45.2 31-63.5 18.1l-11.9-8.4c-18.7-12.9-19.7-41.9-2.6-64.2l248-321.7zm543.3-396.1c-.6 1-1.3 1.6-1.9 2.3-.6.6-1 1.6-1.6 2.3l-140 188.1c-44.2 59.4-123.2 79-190 52.3L568 558.6l-47.4-64.8L579 418c-47.1-54.2-49-136.4-4.5-196.1L710.9 39c.6-1 1.3-1.3 1.6-2.3.6-.6 1-1.6 1.6-2.3 15.2-20.3 45.8-26.5 81.9-20 9.7 1.9 14.2 12.9 8.4 20.3L666.1 220.6c-7.7 10.6-5.5 25.5 5.5 33.2 11 7.7 26.5 5.2 34.2-5.5L841.9 66.1c11.9-16.1 35.2-20.3 51.6-9 0 .3 0 .3.3.3 0 0 0 .3.3.3 16.5 11.3 19.4 34.2 7.4 50L765.4 290.3c-7.7 10.3-5.2 25.5 5.8 32.9 11 7.7 26.1 5.5 34.2-5.2l138.4-185.8c5.8-7.7 17.7-7.1 22.6 1.3 17.7 31.3 21.6 61.3 6.5 81.6z" fill="#e6e6e6" /><path d="M822.4 931.1L413 401.2c52.5-62.5 49.6-166-12.4-249-71.4-95.6-231-177.4-311.1-121.4C9.4 86.9 39.4 259.3 110.9 355c61.9 83 162.4 118.1 240.2 89.5L742 987.3c16.9 23.4 46.5 31.7 65.6 18.3l12.1-8.5c19.2-13.4 20.4-43.2 2.7-66z" fill="#e6e6e6" /></symbol><symbol class="icon" viewBox="0 0 1024 1024" id="foreignExchange"><defs><style></style></defs><path d="M554.728 728.151a684.57 684.57 0 00291.858 113.762l6.187-51.516c-93.828-13.459-192.093-50.91-270.168-104.655l-27.877 42.409zm343.58-635.796l-11.569 36.158C844.959 64.7 766.035 36.182 693.114 58.545c-72.924 22.369-122.291 90.238-121.105 166.5h54.234a117.329 117.329 0 0153.454-100.721c34.03-22.075 77.052-25.002 113.766-7.743A116.01 116.01 0 01838.292 154l-36.152-11.932-16.814 51.525 124.555 40.672 40.677-124.552-52.25-17.358zm-75.443 212.62l-130.517-42.663-42.665 130.523 51.521 16.807 12.475-38.506c43.13 56.443 116.578 80.473 184.725 60.426 68.148-20.042 116.895-80.007 122.594-150.811l-54.229-4.521a117.344 117.344 0 01-58.051 91.937 117.336 117.336 0 01-108.629 4.779 116.453 116.453 0 01-40.493-31.999l46.101 15.005 17.168-50.977z" fill="#3DAE36" /><path d="M935.199 915.118c-71.602 15.014-203.022 4.466-365.516-102.206-197.488-129.609-395.052-47.69-514.492-3.465l1.732-637.567c56.323-28.384 145.137-91.675 377.064-51.103l.864-44.947C153.073 14.342 4 147.981 4 147.981v742.663l49.906-22.229c3.78-1.658 269.238-147.181 482.101-7.635 145.457 94.605 267.498 115.183 343.657 115.183a309.889 309.889 0 0083.962-9.695l25.072-7.571V517.831H936.93l-1.731 397.287z" fill="#3DAE36" /><path d="M437.527 447.729V390.68h-88.105l91.96-81.365-40.315-40.313-84.538 73.758-79.983-68.923-40.313 40.313 87.398 76.53H198.29v57.049h89.716v20.535H198.29v57.049h89.716v98.421h57.042v-98.421h92.479v-57.049h-92.479v-20.535z" fill="#3DAE36" /></symbol><symbol class="icon" viewBox="0 0 1024 1024" id="giftCard"><defs><style></style></defs><path d="M384 592.021c-15.403 16.427-36.832 33.835-64.427 52.95a32 32 0 11-36.448-52.608c23.958-16.598 41.6-31.115 52.8-42.592-22.4-4.342-42.453-11.232-58.08-20.694-57.322-34.688-56.362-111.989-4.48-143.978C307.2 364.235 346.325 370.24 384 400.32V202.667H202.667A53.333 53.333 0 00149.333 256v512a53.333 53.333 0 0053.334 53.333H384V592.021zm64-12.885v242.197h373.333A53.333 53.333 0 00874.667 768V256a53.333 53.333 0 00-53.334-53.333H448v187.509c39.893-23.37 83.232-18.507 114.592 12.992l1.92 1.92 1.568 2.24c23.499 33.387 22.005 69.27-3.296 96.63-14.325 15.487-35.456 27.37-61.419 35.893 20.374 15.114 45.579 28.693 75.766 40.672a32 32 0 01-23.595 59.498c-42.368-16.81-77.621-37.056-105.536-60.885zm0-100.693a566.408 566.408 0 014.395 7.701l.074.15a255.806 255.806 0 0010.688-2.209c25.547-5.888 44.48-14.762 52.64-23.573 3.936-4.267 4.395-6.635-.373-13.888-16.875-14.699-41.92-6.773-67.424 29.227v2.592zM202.667 138.667h618.666c64.8 0 117.334 52.533 117.334 117.333v512c0 64.8-52.534 117.333-117.334 117.333H202.667c-64.8 0-117.334-52.533-117.334-117.333V256c0-64.8 52.534-117.333 117.334-117.333zm108.309 335.669c12.821 7.755 32.864 13.003 55.957 15.413a395.155 395.155 0 015.259-10.634c-28.32-38.187-51.968-47.712-65.237-39.531-11.627 7.157-11.84 25.141 4.021 34.752z" fill="#7dc5eb" /></symbol><symbol class="icon" viewBox="0 0 1105 1024" id="hotel"><defs><style></style></defs><path d="M355.733 198.17h355.732v813.111H355.733V198.17z" fill="#7dc5eb" data-spm-anchor-id="a313x.7781069.0.i18" class="selected" /><path d="M686.062 1024H381.147a38.168 38.168 0 01-38.122-38.122V223.584a38.157 38.157 0 0138.122-38.11h304.915a38.157 38.157 0 0138.11 38.11v762.294a38.157 38.157 0 01-38.11 38.122zM381.147 210.877a12.719 12.719 0 00-12.707 12.707v762.294a12.719 12.719 0 0012.707 12.766h304.915a12.719 12.719 0 0012.707-12.707V223.584a12.719 12.719 0 00-12.707-12.707z" fill="#684C4B" /><path d="M711.477 401.45h241.39v609.831h-241.39v-609.83z" fill="#7dc5eb" data-spm-anchor-id="a313x.7781069.0.i19" class="selected" /><path d="M934.734 1024H729.598a30.875 30.875 0 01-30.829-30.84V419.584a30.864 30.864 0 0130.83-30.829h205.135a30.875 30.875 0 0130.84 30.829V993.16a30.875 30.875 0 01-30.84 30.84zM729.598 414.158a5.438 5.438 0 00-5.426 5.426V993.16a5.438 5.438 0 005.426 5.426h205.136a5.426 5.426 0 005.426-5.426V419.584a5.426 5.426 0 00-5.426-5.426z" fill="#684C4B" /><path d="M139.756 515.792h215.988v495.49H139.756v-495.49z" fill="#7dc5eb" data-spm-anchor-id="a313x.7781069.0.i16" class="selected" /><path d="M340.271 1024H155.206a28.192 28.192 0 01-28.157-28.168V531.253a28.18 28.18 0 0128.157-28.156H340.27a28.18 28.18 0 0128.169 28.156v464.579A28.192 28.192 0 01340.27 1024zM155.206 528.5a2.765 2.765 0 00-2.754 2.753v464.579a2.765 2.765 0 002.754 2.754H340.27a2.754 2.754 0 002.754-2.754V531.253a2.754 2.754 0 00-2.754-2.753z" fill="#684C4B" /><path d="M0 998.574h1105.331v25.414H0z" fill="#684C4B" /><path d="M628.512 66.208c0 70.584-107.609 127.796-107.609 127.796s-107.62-57.177-107.62-127.796S517.53 2.31 520.903 46.033c3.36-43.723 107.61-50.409 107.61 20.175z" fill="#7dc5eb" data-spm-anchor-id="a313x.7781069.0.i20" class="selected" /><path d="M520.903 201.192l-2.987-1.587c-4.54-2.404-110.993-59.849-110.993-133.397 0-42.124 32.614-58.343 60.538-59.393 20.385-.77 42.765 6.44 53.442 21.33 10.654-14.878 32.906-22.089 53.431-21.33 27.924 1.073 60.596 17.27 60.596 59.393 0 73.513-106.454 130.993-110.993 133.397zM470.53 19.463h-2.59c-23.338.899-48.309 13.63-48.309 46.675 0 59.51 84.214 110.76 101.273 120.515 17.06-9.755 101.261-60.97 101.261-120.515 0-33.069-24.947-45.8-48.308-46.675-21.646-.851-45.228 9.02-46.675 27.014h-12.614c-1.342-17.224-22.987-27.014-44.038-27.014z" fill="#684C4B" /><path d="M520.903 200.725a6.745 6.745 0 01-3.162-.782c-4.54-2.415-111.191-59.965-111.191-133.735 0-39.673 30.584-58.6 60.887-59.767 20.525-.84 42.614 6.36 53.466 21.004 10.84-14.703 32.766-21.902 53.455-21.004 30.338 1.167 60.887 20.094 60.887 59.767 0 73.77-106.652 131.32-111.191 133.735a6.733 6.733 0 01-3.15.782zM470.53 19.86h-2.578c-23.174.887-47.947 13.524-47.947 46.325 0 59.207 83.454 110.106 100.9 120.094 17.42-10 100.887-60.957 100.887-120.094 0-32.8-24.773-45.438-47.947-46.325-21.54-.817-44.866 8.915-46.243 26.663a6.721 6.721 0 01-13.407 0c-1.319-17.024-22.79-26.698-43.665-26.698z" fill="#684C4B" /><path d="M520.903 207.085a13.256 13.256 0 01-6.126-1.517c-11.704-6.231-114.575-63.408-114.575-139.36 0-43.886 33.653-64.831 66.99-66.115 21.284-.886 41.32 6.01 53.676 17.865C533.238 6.103 553.331-.852 574.544.093c33.326 1.284 66.967 22.17 66.967 66.115 0 75.952-102.813 133.082-114.54 139.336a13.232 13.232 0 01-6.068 1.54zM470.728 12.719c-.992 0-1.984 0-2.976.058-27.281 1.05-54.784 17.982-54.784 53.431 0 69.733 103.408 125.777 107.819 128.134h.175a.478.478 0 00.21-.058c4.364-2.334 107.772-58.343 107.772-128.11 0-35.45-27.503-52.382-54.773-53.432-20.105-.63-39.207 6.453-48.099 18.507l-5.11 6.92-5.181-6.862C507.46 20 489.584 12.72 470.669 12.72zm50.175 180.865l-3.162-1.809c-17.375-9.941-104.085-62.742-104.085-125.602 0-37.34 29.113-51.715 54.05-52.672h2.823c23.606 0 48.356 11.19 50 32.579 2.463-22.357 29.593-33.408 53.549-32.521 24.947.957 54.072 15.321 54.072 52.673 0 62.777-86.721 115.637-104.085 125.602zm-50.374-167.4h-2.333c-9.814.374-41.844 4.365-41.844 39.978 0 52.859 72.906 99.93 94.516 112.731 21.634-12.835 94.517-59.942 94.517-112.731 0-35.613-32.03-39.604-41.856-39.977-17.76-.572-38.588 7-39.673 20.805a13.08 13.08 0 01-26.08 0c-.922-13.01-19.685-20.805-37.247-20.805z" fill="#684C4B" /><path d="M406.561 312.512h88.94v88.939h-88.94v-88.94z" fill="#FFF" /><path d="M482.782 414.158h-63.525a25.426 25.426 0 01-25.403-25.403v-63.524a25.438 25.438 0 0125.403-25.415h63.525a25.438 25.438 0 0125.414 25.415v63.524a25.438 25.438 0 01-25.414 25.403zm-63.525-88.927v63.524h63.536v-63.524z" fill="#684C4B" /><path d="M559.013 312.512h88.94v88.939h-88.94v-88.94z" fill="#FFF" /><path d="M635.245 414.158H571.72a25.438 25.438 0 01-25.414-25.403v-63.524a25.438 25.438 0 0125.414-25.415h63.525a25.438 25.438 0 0125.356 25.415v63.524a25.426 25.426 0 01-25.356 25.403zM571.72 325.23v63.524h63.537v-63.524z" fill="#684C4B" /><path d="M406.561 473.447h88.94v88.939h-88.94v-88.94z" fill="#FFF" /><path d="M482.782 575.07h-63.525a25.426 25.426 0 01-25.403-25.403v-63.513a25.438 25.438 0 0125.403-25.438h63.525a25.438 25.438 0 0125.414 25.414v63.525a25.438 25.438 0 01-25.414 25.414zm-63.525-88.916v63.524h63.536v-63.524z" fill="#684C4B" /><path d="M559.013 473.447h88.94v88.939h-88.94v-88.94z" fill="#FFF" /><path d="M635.245 575.07H571.72a25.438 25.438 0 01-25.414-25.403v-63.513a25.438 25.438 0 0125.414-25.438h63.525a25.438 25.438 0 0125.356 25.438v63.524a25.426 25.426 0 01-25.356 25.391zm-63.525-88.916v63.524h63.537v-63.524z" fill="#684C4B" /><path d="M406.561 634.37h88.94v88.939h-88.94v-88.94z" fill="#FFF" /><path d="M482.782 736.016h-63.525a25.426 25.426 0 01-25.403-25.403V647.09a25.438 25.438 0 0125.403-25.415h63.525a25.438 25.438 0 0125.414 25.415v63.524a25.438 25.438 0 01-25.414 25.403zm-63.525-88.927v63.524h63.536V647.09z" fill="#684C4B" /><path d="M559.013 634.37h88.94v88.939h-88.94v-88.94z" fill="#FFF" /><path d="M635.245 736.016H571.72a25.438 25.438 0 01-25.414-25.403V647.09a25.438 25.438 0 0125.414-25.415h63.525a25.438 25.438 0 0125.356 25.415v63.524a25.426 25.426 0 01-25.356 25.403zm-63.525-88.927v63.524h63.537V647.09z" fill="#684C4B" /><path d="M406.561 795.305h88.94v88.939h-88.94v-88.94z" fill="#FFF" /><path d="M482.782 896.951h-63.525a25.438 25.438 0 01-25.403-25.414v-63.525a25.438 25.438 0 0125.403-25.414h63.525a25.438 25.438 0 0125.414 25.414v63.525a25.438 25.438 0 01-25.414 25.414zm-63.525-88.939v63.525h63.536v-63.525z" fill="#684C4B" /><path d="M559.013 795.305h88.94v88.939h-88.94v-88.94z" fill="#FFF" /><path d="M635.245 896.951H571.72a25.438 25.438 0 01-25.414-25.414v-63.525a25.438 25.438 0 0125.414-25.414h63.525a25.438 25.438 0 0125.356 25.414v63.525a25.438 25.438 0 01-25.356 25.414zm-63.525-88.939v63.525h63.537v-63.525z" fill="#684C4B" /><path d="M787.708 634.37h88.94v88.939h-88.94v-88.94z" fill="#FFF" /><path d="M863.929 736.016h-63.525a25.426 25.426 0 01-25.45-25.403V647.09a25.438 25.438 0 0125.403-25.415h63.525a25.438 25.438 0 0125.426 25.415v63.524a25.438 25.438 0 01-25.38 25.403zm-63.525-88.927v63.524h63.536V647.09z" fill="#684C4B" /><path d="M787.708 795.305h88.94v88.939h-88.94v-88.94z" fill="#FFF" /><path d="M863.929 896.951h-63.525a25.438 25.438 0 01-25.45-25.414v-63.525a25.438 25.438 0 0125.403-25.414h63.525a25.438 25.438 0 0125.426 25.414v63.525a25.438 25.438 0 01-25.38 25.414zm-63.525-88.939v63.525h63.536v-63.525z" fill="#684C4B" /><path d="M774.99 509.445a57.177 57.177 0 10114.353 0 57.177 57.177 0 10-114.353 0z" fill="#FFF" /><path d="M832.131 579.329a69.884 69.884 0 1169.884-69.884 70.012 70.012 0 01-69.884 69.884zm0-114.354a44.47 44.47 0 1044.47 44.47 44.528 44.528 0 00-44.47-44.47z" fill="#684C4B" /><path d="M203.28 786.833h88.94v88.94h-88.94v-88.94z" fill="#FFF" /><path d="M279.5 888.48h-63.477a25.438 25.438 0 01-25.403-25.415v-63.524a25.426 25.426 0 0125.403-25.403h63.478a25.438 25.438 0 0125.414 25.403v63.524a25.438 25.438 0 01-25.414 25.415zm-63.477-88.94v63.525h63.536v-63.524z" fill="#684C4B" /><path d="M190.573 661.896a57.177 57.177 0 10114.354 0 57.177 57.177 0 10-114.354 0z" fill="#FFF" /><path d="M247.739 731.78a69.884 69.884 0 1169.883-69.872 70.012 70.012 0 01-69.883 69.872zm0-114.353a44.47 44.47 0 1044.469 44.47 44.516 44.516 0 00-44.47-44.458z" fill="#684C4B" /></symbol><symbol class="icon" viewBox="0 0 1024 1024" id="inq"><defs><style></style></defs><path d="M954.368 927.04l-27.264 27.264c-7.552 7.552-19.776 7.552-27.264 0L693.888 748.352c-151.488 124.16-375.424 115.52-516.864-25.92-150.656-150.656-150.656-394.88 0-545.536 150.656-150.656 394.88-150.656 545.536 0C864 318.336 872.576 542.208 748.48 693.76l205.952 205.952c7.424 7.616 7.424 19.84-.064 27.328zm-286.4-695.488c-120.512-120.512-315.904-120.512-436.416 0s-120.512 315.904 0 436.416 315.904 120.512 436.416 0 120.512-315.904 0-436.416z" fill="#fff" /></symbol><symbol class="icon" viewBox="0 0 1024 1024" id="inquery"><defs><style></style></defs><path d="M954.368 927.04l-27.264 27.264c-7.552 7.552-19.776 7.552-27.264 0L693.888 748.352c-151.488 124.16-375.424 115.52-516.864-25.92-150.656-150.656-150.656-394.88 0-545.536 150.656-150.656 394.88-150.656 545.536 0C864 318.336 872.576 542.208 748.48 693.76l205.952 205.952c7.424 7.616 7.424 19.84-.064 27.328zm-286.4-695.488c-120.512-120.512-315.904-120.512-436.416 0s-120.512 315.904 0 436.416 315.904 120.512 436.416 0 120.512-315.904 0-436.416z" fill="#d4237a" /></symbol><symbol class="icon" viewBox="0 0 1024 1024" id="insurance"><defs><style></style></defs><path d="M512 0L93.015 186.03v279.044C93.015 723.169 271.502 965.342 512 1024c240.498-58.658 418.985-299.993 418.985-558.926V186.029L512 0zm0 512h325.97C813.67 703.895 685.46 874.841 512 928.471V512l-325.97.838V246.363L512 102.233V512z" fill="#7dc5eb" /></symbol><symbol class="icon" viewBox="0 0 1024 1024" id="kid"><defs><style></style></defs><path d="M819.2 230.4L710.4 416l-6.4 6.4V928c0 51.2-44.8 96-96 96-44.8 0-83.2-224-96-320-6.4 96-44.8 320-96 320s-96-44.8-96-96V422.4l-6.4-6.4-108.8-185.6c-25.6-32-12.8-70.4 25.6-89.6 32-19.2 76.8-12.8 96 25.6l96 153.6h179.2l96-160c19.2-32 64-44.8 102.4-25.6 32 19.2 44.8 64 19.2 96zM512 256c-70.4 0-128-57.6-128-128S441.6 0 512 0s128 57.6 128 128-57.6 128-128 128z" fill="#d4237a" /></symbol><symbol class="icon" viewBox="0 0 1024 1024" id="money"><defs><style></style></defs><path d="M463.3 958.3V772.1H228.8v-77.5h234.5v-80.5H228.8v-83.5H420L191.5 128h113.7L469 420.6c18.2 33.4 32.4 62.4 42.7 86.9 9-19.8 24.6-50.5 46.8-92.1L713.9 128h120.8L605.5 530.6h192.9v83.5H564.9v80.5h233.5v77.5H564.9v186.2H463.3z" fill="#fff" /></symbol><symbol class="icon" viewBox="0 0 1024 1024" id="new"><defs><style></style></defs><path d="M511.656 81.519c-245.792 0-428.544 201.248-428.544 436.47 0 20.752 4.565 82.37 11.87 99.737l5.695 21.765c1.76 10.998 10.97 19.589 22.57 19.589 10.216 0 20.557-8.248 21.962-17.54l.564-5.093-2.762-15.899c-3.854-16.928-12.226-80.75-12.226-102.559 0-209.074 162.734-392.476 380.87-389.153 210.62 3.2 381.412 169.52 381.412 378.594 0 209.056-170.794 378.574-381.412 378.574-75.057 0-144.88-21.828-203.899-59.006-.106.075-.241.164-.35.242-10.189-5.069-23.517-3.59-33.25 4.641-25.317 23.53-50.387 37.868-71.119 46.621 5.741-39.596 7.03-89.065 5.087-109.45 0-3.744-.713-7.6-2.471-11.322-5.739-12.326-19.262-18.233-30.192-13.212-5.275 2.404-8.918 6.92-10.719 12.293l-1.214 7.652c0 1.892.168 3.785.608 5.708 1.78 21.035 6.762 77.193-17.188 126.656-1.697 3.983-2.463 8.204-2.424 12.37-.025.131-.066.258-.087.392-2.22 13.026 7.118 25.447 20.872 27.747.952.158 1.893.243 2.827.289 3.38.304 6.74-.152 9.894-1.31 27.868-5.812 91.07-33.579 124.254-57.37 61.93 34.542 133.278 54.386 209.374 54.386 236.998 0 429.087-190.687 429.085-425.903-.002-235.232-192.09-425.91-429.087-425.91z" fill="#df911d" /><path d="M226.17 426.224v168.852h36.718v-99.638c0-6.086.928-11.837 2.902-17.32 1.913-5.42 4.619-10.17 8.044-14.18 3.43-4.01 7.652-7.224 12.597-9.495 4.943-2.277 10.548-3.414 16.745-3.414 10.945 0 18.99 3.01 24.128 8.966 5.14 6.015 7.912 15.647 8.376 28.889v106.192h36.72V479.117c0-19.19-5.207-33.565-15.755-43.133-10.547-9.561-24.924-14.378-43.184-14.378-10.945 0-20.9 2.673-29.935 8.026-9.032 5.353-16.287 12.704-21.89 22.066l-.66-.67v-24.805h-34.807zM559.65 483.669c-3.098-11.904-8.107-22.403-14.97-31.567-6.857-9.162-15.495-16.515-25.91-22.066-10.416-5.617-22.153-8.363-35.271-8.363-12.46 0-23.6 2.342-33.492 7.159-9.894 4.745-18.328 11.234-25.254 19.392-6.99 8.158-12.33 17.655-16.089 28.42-3.757 10.837-5.603 22.203-5.603 34.174 0 13.04 1.714 25.01 5.278 35.914 3.49 10.896 8.767 20.194 15.753 28.086 6.994 7.888 15.499 13.972 25.585 18.321 10.083 4.348 21.689 6.556 34.81 6.556 8.966 0 17.668-1.27 25.913-3.745 8.24-2.539 15.754-6.219 22.414-11.168 6.595-4.883 12.329-10.902 17.013-18.123 4.748-7.157 8.106-15.316 10.02-24.48h-34.808c-3.235 9.364-8.115 16.389-14.638 21.068-6.53 4.683-15.166 7.02-25.913 7.02-7.714 0-14.374-1.337-19.979-4.077-5.603-2.74-10.15-6.418-13.843-10.97-3.692-4.546-6.399-9.897-8.245-15.98-1.768-6.041-2.666-12.285-2.679-18.79H562.09c1.449-12.644.66-24.945-2.44-36.781zM439.722 495.77c.195-6.287 1.449-12.169 3.69-17.654 2.24-5.418 5.273-10.168 9.035-14.179 3.757-4.01 8.304-7.224 13.51-9.495 5.212-2.277 11.076-3.414 17.54-3.414 6.197 0 11.867 1.27 16.947 3.746 5.011 2.54 9.297 5.821 12.85 9.83 3.563 4.017 6.334 8.761 8.376 14.18 2.043 5.484 3.295 11.101 3.692 16.985h-85.64zM695.73 469.688h.66l30.922 125.456h37.716l52.154-168.92h-37.386l-33.823 126.122h-.66L715.38 426.224h-37.052l-31.253 126.122h-.66L613.91 426.224h-38.964l51.56 168.92h38.632z" fill="#df911d" /></symbol><symbol class="icon" viewBox="0 0 1815 1024" id="overseas"><defs><style></style></defs><path d="M146.739 0h1137.224q146.739 0 146.739 146.739v513.585q0 146.739-146.739 146.739H146.74Q0 807.063 0 660.324V146.739Q0 0 146.739 0z" fill="#3882FF" /><path d="M706.473 327.594v-40.573h-82.687c6.163-14.38 11.813-29.788 15.921-45.196h51.872v-40.06H571.4c-3.595-14.893-7.703-28.76-11.812-41.086l-51.872 8.73c4.622 9.759 9.244 20.544 13.353 32.357h-110.42v40.06h43.14c6.163 13.866 11.3 28.76 16.435 45.195h-74.983v40.573h311.232zM252.463 577.71c51.36-15.407 99.636-34.41 144.832-57.008v-49.304c-19.516 9.244-38.519 17.462-58.035 24.652V334.27h40.573v-47.25H339.26V168.384h-48.79V287.02h-49.305v47.25h49.304v177.7a914.182 914.182 0 01-50.845 12.326l12.84 53.413zm324.073-290.69h-60.09c-4.622-15.92-9.244-30.814-13.866-45.195h92.445a199.565 199.565 0 01-18.489 45.196zM374.697 641.396c50.332-12.326 86.283-28.247 107.853-48.277 18.49-19.003 31.329-43.141 37.492-72.416h43.655v65.225c0 31.33 14.894 47.25 45.709 47.25H665.9c15.408 0 27.22-3.595 35.437-10.785 7.704-7.704 13.354-30.815 16.435-69.334l-43.141-13.867c-1.027 25.68-3.081 40.573-6.163 45.71-2.568 4.108-6.163 6.676-10.785 6.676h-34.924c-7.704 0-11.299-5.136-11.299-14.894v-55.98h62.657V351.218H424.001v169.483h50.845a91.712 91.712 0 01-29.274 43.655c-18.49 14.38-48.277 25.68-89.364 33.383l18.49 43.655zm254.739-222.896H468.683v-28.761h160.753v28.76zm0 62.657H468.683v-28.76h160.753v28.76zm165.888 148.426c133.018-79.092 208.002-196.703 225.464-351.806v-43.14h-121.72c6.163-19.517 11.299-39.547 15.92-60.09l-48.79-8.218c-20.543 90.391-59.576 162.293-117.097 215.706l33.897 42.114c41.086-38.005 73.956-85.255 98.608-142.777h91.418c-7.704 49.305-21.57 94.5-42.114 135.587a421.874 421.874 0 00-73.443-48.277l-25.679 38.005c25.68 12.326 51.359 28.247 76.524 48.79-35.437 53.414-84.228 97.582-146.371 132.506l33.383 41.6zm308.664 9.758V373.303c26.707 22.598 59.063 53.413 97.068 92.96l30.302-45.71a1621.242 1621.242 0 00-127.37-101.69V166.842h-49.304V639.34h49.304z" fill="#FFF" /></symbol><symbol class="icon" viewBox="0 0 1024 1024" id="overseasTransfer"><defs><style></style></defs><path d="M482.372 353.536h246.153c54.989 0 108.868 44.8 120.234 99.857l31.335 150.955a106.189 106.189 0 0161.73 88.661l7.134 96.546c2.935 41.66-20.156 79.087-56.132 94.26-8.295 33.45-37.752 54.869-72.431 54.869-32.188 0-59.648-20.736-70.23-50.603H460.663c-10.478 29.867-37.973 50.603-70.195 50.603-34.61 0-64.102-21.419-72.43-54.87-35.943-15.172-59.017-52.6-56.116-94.259l7.168-96.546c2.663-38.775 27.068-72.909 61.696-88.661l31.317-150.955c11.418-55.057 65.502-99.857 120.27-99.857zM357.65 740.949c0 30.533 25.02 55.228 55.893 55.228 31.028 0 56.081-24.695 56.081-55.228 0-30.566-25.053-55.262-56.08-55.262-30.874 0-55.894 24.696-55.894 55.262zm383.573 0c0 30.533 25.054 55.228 56.133 55.228 30.84 0 55.876-24.695 55.876-55.228 0-30.566-25.037-55.262-55.876-55.262-31.079 0-56.133 24.696-56.133 55.262zM424.738 600.525c3.328 4.01 7.97 4.505 13.312 4.505 1.74 0 3.55-.05 5.41-.05h323.96c7.594 0 14.302.87 18.568-4.233 4.489-5.172 6.23-12.51 5.07-20.31l-.41-1.57-25.498-114.773c-3.09-17.835-20.344-32.785-37.973-32.785H483.755c-17.698 0-34.902 14.95-38.247 32.785L420.25 578.867l-.444 1.57c-1.16 7.8.665 14.968 4.932 20.088zm-80.094-446.328a51.029 51.029 0 0016.418 18.603 51.695 51.695 0 00-34.235 11.605 51.234 51.234 0 00-18.722 39.578v15.36a51.2 51.2 0 0022.647 42.496l4.642 3.123c-8.704 4.881-20.838 4.864-25.31 11.81-6.297 9.728 43.452 19.832 69.12 17.596l3.158 2.133-39.1 34.134-18.005 40.004c-5.001-8.977-9.216-17.22-10.65-16.043-2.918 1.963-10.496.086-18.022-1.792-5.769-1.45-11.503-2.901-15.053-2.61-8.431.613-4.216 18.14-12.8 18.004-15.6-.495-12.237-4.437-11.76 1.485.513 7.356 3.09 25.686 3.09 51.593 0 4.932 6.656 2.713 14.455.495 4.625-1.332 9.66-2.646 13.944-2.475 8.362.341 14.711 4.779 20.31 9.199l-11.794 41.745-25.822 27.05a27.068 27.068 0 01-2.423-10.017c0-22.921 6.314-33.554 0-33.554-12.408 0-23.672 7.544-26.641 0-8.21-21.81-25.84-28.518-26.624-28.518-32.939-.495-34.27-39.987-34.27-76.817 0-11.127-12.39-12.134-21.607-17.715-5.154 14.592-26.3 14.762-35.208 5.12-2.901 13.892-4.506 28.484-4.506 43.366 0 88.303 53.777 163.994 129.963 195.14l-.632 37.172c-95.42-32.922-163.874-124.502-163.874-232.312 0-135.629 108.357-245.555 242.193-245.555 5.752 0 11.47.205 17.118.597zm469.59-85.589s2.304-.341 6.024-.341c9.148 0 26.897 1.98 40.277 15.701 5.581 8.892 0 31.113 0 31.113L459.418 301.55l-92.604-62.225v-15.343l77.124 15.343 123.41-62.02-154.25-46.66h-15.496L413.1 115.08l277.674 15.564 123.46-62.037z" fill="#7dc5eb" /></symbol><symbol class="icon" viewBox="0 0 1024 1024" id="overseasTravel"><defs><style></style></defs><path d="M512.002 0C229.23 0 0 229.209 0 512.001 0 794.751 229.228 1024 512.002 1024c282.767 0 511.997-229.25 511.997-511.999C1024 229.209 794.77 0 512.002 0zM402.567 968.477c-206.424-49.301-359.9-234.97-359.9-456.498 0-49.342 7.622-96.903 21.741-141.578 5.381 35.052 67.424 42.49 80.382 5.974 18.96 11.458 44.417 13.541 44.417 36.437 0 75.583 2.647 156.604 70.354 157.875 1.896.022 37.729 13.77 54.813 58.646 5.895 15.52 29.229 0 54.812 0 12.77 0 0 21.834 0 69.04 0 47.042 99.937 119.438 99.937 119.438-.48 31.147.792 56.313 3.333 76.416-88.3-1.66-122.28 49.594-69.89 74.25zm109.435 12.835c-6.888 0-13.74-.157-20.555-.45 102.547-8.147 133.405-113.727 73.97-97.904C579.5 822.105 586.353 788 615.749 762.126c42.563-37.417 5.086-79.043-27.292-74.124-25.52 3.915-9.395-32.064-32.165-34.044-22.792-1.958-52.542-47.917-85.334-63.73-17.376-8.353-34.458-30.811-61.249-31.812-23.75-.937-58.458 20.376-58.458 3.959 0-52.916-5.292-90.668-6.376-105.75-.876-12.124-7.812-4.084 24.313-3.29 17.478.457 8.937-35.626 26.228-37.042 17.002-1.356 57.48 16.144 67.792 9.166 9.583-6.5 70.439 162.041 70.439 27.875 0-15.938-8.126-43.625 0-58.71 32.144-59.581 62.228-108.145 59.541-115.25-1.545-3.999-32.896-7.312-57.98 1.231-8.476 2.875 2.69 16.311-9.477 19.187-45.563 10.688-85.815-12.457-71.71-34.208 14.437-22.292 66.73-9.71 71.312-54.417 2.646-25.624 4.834-55.271 6.292-77.334 62.112 9.87 54.378-83.083-40.202-90.735a477.44 477.44 0 0120.58-.451c259.206 0 469.331 210.145 469.331 469.333 0 259.208-210.126 469.332-469.332 469.332zm394.81-572.02c2.355-45.125-4.272-77.792-23.856-79.792-27.56-69.875-94.477-19.313-71.77 42.29-121.604 94.855-90.478 161-50.52 198.898 21.02 19.896 41.06 49.853 54.125 71.354-18.708 55.334 102.563 8.687 102.563-130.04 0-35.294-3.647-69.627-10.542-102.71z" fill="#7dc5eb" /></symbol><symbol class="icon" viewBox="0 0 1024 1024" id="plane"><defs><style></style></defs><path d="M888.808 291.754c-.438.435-.915.793-1.36 1.219l.064.063-164.123 145.796 47.584 183.622 15.798 60.975 53.867 207.839-.111.063c2.87 9.289.725 19.775-6.66 27.12-10.65 10.595-27.905 10.595-38.549 0-.501-.494-.851-1.068-1.306-1.578-.517-.446-1.09-.812-1.584-1.307-.478-.46-.82-1.019-1.26-1.513l-.19.08L544.65 597.615l-137.753 122.38-.378-.05-32.184 145.178-.06.017c-.318 6.484-2.876 12.872-7.854 17.844-10.652 10.58-27.906 10.58-38.553 0-3.198-3.185-5.318-6.993-6.593-11.01l-.056.017-49.312-120.497-122.333-49.329a17.376 17.376 0 01-1.202-.478l-.434-.177.007-.047c-2.896-1.306-5.64-3.075-8.022-5.434-10.646-10.595-10.646-27.77 0-38.35 4.984-4.955 11.416-7.503 17.937-7.823l.011-.064 146.222-32.072L427.26 480.54 111.01 237.755l.115-.259c-.682-.558-1.407-1.027-2.044-1.662-10.647-10.591-10.647-27.758 0-38.35 6.405-6.368 15.192-8.83 23.5-7.539l.004-.004.04.008c1.33.211 2.629.566 3.923.972l200.998 49.665 61.762 15.263 187.969 46.448L733.306 139.64l.064.069c.431-.443.795-.913 1.226-1.35 44.157-44.6 127.048-57.696 169.629-15.336 42.588 42.36 28.92 124.131-15.417 168.73zm-76.595-145.83c-33.161 0-60.854 23.305-67.688 54.42l94.575 78.844c24.941-10.5 42.451-35.167 42.451-63.926.001-38.294-31.043-69.339-69.338-69.339z" fill="#7dc5eb" /></symbol><symbol class="icon" viewBox="0 0 1024 1024" id="point"><defs><style></style></defs><path d="M512 624a112 112 0 100-224 112 112 0 000 224z" fill="#2c2c2c" /></symbol><symbol class="icon" viewBox="0 0 1024 1024" id="question"><defs><style></style></defs><path d="M512 77C271.8 77 77 271.8 77 512s194.8 435 435 435 435-194.8 435-435S752.2 77 512 77zm-2.8 739.4c-35.4 0-64.2-28.2-64.2-62.9s28.7-62.9 64.2-62.9c35.4 0 64.2 28.2 64.2 62.9s-28.7 62.9-64.2 62.9zm172.4-355.9c-12.6 19.8-39.3 46.7-80.3 80.8-21.2 17.6-34.4 31.8-39.5 42.6-5.1 10.7-7.5 29.9-7 57.6h-91.4c-.2-13.1-.4-21.1-.4-24 0-29.6 4.9-53.9 14.7-73 9.8-19.1 29.4-40.6 58.7-64.4 29.3-23.9 46.9-39.5 52.6-46.9 8.8-11.7 13.3-24.6 13.3-38.6 0-19.5-7.9-36.2-23.5-50.2-15.6-13.9-36.8-20.9-63.3-20.9-25.6 0-47 7.3-64.2 21.8-17.2 14.5-32 46.5-35.5 66.3-3.3 18.7-93.4 26.6-92.3-11.3 1.1-37.9 20.8-79 54.6-108.8 33.8-29.8 78.2-44.7 133.1-44.7 57.8 0 103.7 15.1 137.9 45.3 34.2 30.2 51.2 65.3 51.2 105.4.1 22.2-6.2 43.2-18.7 63z" fill="#d4237a" /></symbol><symbol class="icon" viewBox="0 0 1024 1024" id="scene"><defs><style></style></defs><path d="M723.216 167.12c-62.464 0-118.512-14.928-156.768-35.552C528.16 110.864 472.144 96 409.664 96c-62.4 0-118.416 25.504-156.768 46.208v391.104c38.256-20.704 94.288-46.192 156.768-46.192 62.48 0 118.512 14.928 156.784 35.552 38.256 20.704 94.304 35.568 156.768 35.568 62.48 0 118.432-27.36 156.784-48V119.072c-38.352 20.704-94.384 48.064-156.784 48.064zM194.88 96C175.616 96 160 111.52 160 130.672v762.656C160 912.496 175.616 928 194.88 928c19.248 0 34.88-15.52 34.88-34.672V130.672A34.816 34.816 0 00194.88 96z" fill="#dbdbdb" /></symbol><symbol class="icon" viewBox="0 0 1024 1024" id="singleTrip"><defs><style></style></defs><path d="M921.58 345.15l-11.408 19.271 57.651 35.574H13.537V422.4h996.926v-22.405z" fill="#8a8a8a" /></symbol><symbol class="icon" viewBox="0 0 1024 1024" id="ticket"><defs><style></style></defs><path d="M832 362.667V448l82.133 170.667 67.2 85.333H42.667l67.2-85.333L192 448v-85.333h-85.333l48.768-53.334L234.667 192 256 106.667h85.333l21.334 42.666h298.666l21.334-42.666H768L789.333 192l79.232 117.333 48.768 53.334H832zm-42.667 0H234.667V448h554.666v-85.333zM749.76 209.643l-15.083-60.31h-25.642L687.7 192H336.3l-21.334-42.667h-25.642l-15.083 60.31L199.68 320h624.64l-74.539-110.357zm127.957 431.744l-72.533-150.72H218.816l-72.533 150.72-15.702 19.946H893.42l-15.702-19.946z" fill="#7dc5eb" /><path d="M554.667 938.667v-85.462c0-23.466-19.094-42.538-42.667-42.538-23.723 0-42.667 19.05-42.667 42.538v85.462h-448l128-277.334h725.334l128 277.334h-448zm-128-42.667v-42.795A85.163 85.163 0 01512 768c47.083 0 85.333 38.144 85.333 85.205V896H935.98L847.36 704H176.64L88.021 896h338.646z" fill="#7dc5eb" /></symbol><symbol class="icon" viewBox="0 0 1024 1024" id="ticketMoney"><defs><style></style></defs><path d="M463.3 958.3V772.1H228.8v-77.5h234.5v-80.5H228.8v-83.5H420L191.5 128h113.7L469 420.6c18.2 33.4 32.4 62.4 42.7 86.9 9-19.8 24.6-50.5 46.8-92.1L713.9 128h120.8L605.5 530.6h192.9v83.5H564.9v80.5h233.5v77.5H564.9v186.2H463.3z" fill="#666" /></symbol><symbol class="icon" viewBox="0 0 1024 1024" id="travel"><defs><style></style></defs><path d="M215.434 1019.51h133.948c-21.286-32.864-30.624-60.5-43.26-105.936l-90.688 105.937zM767.288 732.381l-227.44 254.327 23.154 32.803h460.977zM553.294 637.147L446.356 765.683c14.131 76.121 15.066 113.843 53.78 176.209l.375-.434 156.355-183.931-103.572-120.38z" fill="#7dc5eb" /><path d="M474.618 994.862c-4.107-7.344-8.09-14.813-12.014-22.345-.188-.496-.436-.871-.684-1.369-12.574-24.65-23.776-50.417-33.986-76.747-.622-1.68-1.242-3.362-1.868-5.04-2.614-6.971-5.165-13.882-7.595-20.853-.87-2.55-1.738-5.041-2.613-7.53a1089.674 1089.674 0 01-6.162-18.488c-.93-2.988-1.926-6.036-2.8-9.024-1.804-5.728-3.61-11.327-5.228-17.057-46.435-156.602-56.268-244.493-50.42-269.762.437-1.62.499-3.735.437-5.976 23.22-2.551 57.824-2.49 98.41 3.735 58.632 8.9 130.463 49.918 137.932 35.354 3.92-7.469-54.65-72.015-102.204-92.308 61-9.462 114.4-4.232 147.144-3.485 18.798.436 37.532 2.428 40.332-.31 5.854-5.666-30-27.139-55.083-35.232-17.865-5.788-57.827-21.412-119.448-7.217-57.015 13.132-108.802 43.257-137.372 62.179.31-.809.562-1.43.935-2.24 34.668-91.808 121.748-122.06 161.334-142.352 14.566-7.405 30.436-13.194 30.313-17.054-.374-8.09-45.687-14.192-71.515-11.64-18.363 1.804-61.747 3.176-96.357 42.887-14.686 16.866-25.519 36.723-33.486 56.33-2.738-37.408-10.334-82.039-30.251-116.956-32.926-57.639-95.481-57.141-105.191-56.578-9.71.56-7.593 23.464 2.677 53.34 10.27 29.938 29.69 55.522 53.342 97.725 7.717 13.63 18.298 31.682 29.006 49.918-18.178-21.036-42.264-43.322-71.021-56.889-47.865-22.594-88.076-6.599-105.69-.934-24.647 7.906-63.676 31.494-60.688 39.025 1.372 3.549 18.302 2.615 34.609 3.61 44.566 2.8 136.5-4.11 205.527 66.289.995.934 1.745 1.682 2.615 2.555-32.991-12.077-86.769-28.012-141.666-28.322-63.24-.376-98.718 23.587-114.904 33.049-22.654 13.383-52.782 42.202-45.812 46.435 3.363 2.054 21.166-3.984 39.338-8.527 49.174-12.137 143.661-45.623 252.712-20.48-32.742 6.725-76.062 25.023-101.21 73.76-22.779 44.38-7.78 149.135 1.369 151.189 16.06 3.547 29.94-77.368 60.316-127.723 22.097-36.722 45.25-64.11 62.306-79.922-7.718 152.622 8.465 215.238 31.994 316.82v.064c8.838 37.718 18.547 71.705 28.57 101.954.184.436.311.934.434 1.37 1.87 5.479 3.673 10.83 5.478 16.12.248.498.374 1.058.62 1.62 1.87 5.227 12.825 31.68 12.825 31.68h91s-9.958-13.754-13.444-19.857a194.459 194.459 0 01-2.863-4.79zM375.65 511.663c2.616-.995 66.725-23.028 111.915 4.171 2.428 1.494 3.237 4.67 1.743 7.037-.996 1.616-2.676 2.49-4.481 2.49-.87 0-1.804-.251-2.615-.75-41.079-24.71-102.515-3.485-103.076-3.299-2.736.935-5.723-.433-6.657-3.11-.935-2.678.434-5.603 3.171-6.539zm-99.653 54.651c-.56.312-50.354 36.6-60.064 85.273-.498 2.367-2.615 4.11-5.105 4.11-.245 0-.621 0-.996-.125-2.8-.498-4.604-3.235-4.106-5.975 10.58-52.72 61.995-90.065 64.236-91.623 2.24-1.618 5.477-1.12 7.22 1.122 1.62 2.363 1.12 5.538-1.185 7.218zm50.42-93.552h-.25a5.145 5.145 0 01-5.168-4.918c-4.606-94.982-71.08-170.92-71.704-171.728-1.866-2.117-1.743-5.354.436-7.22 2.18-1.869 5.413-1.682 7.282.497 2.864 3.173 69.464 79.424 74.318 177.953.127 2.865-2.052 5.231-4.914 5.416z" fill="#7dc5eb" /></symbol><symbol class="icon" viewBox="0 0 1040 1024" id="visa"><defs><style></style></defs><path d="M1023.957 137.629v748.839c.029 29.6-11.481 57.446-32.439 78.433-20.958 20.924-48.802 32.502-78.403 32.502H648.629c13.681-14.256 24.813-30.97 32.532-49.503h231.89c16.397 0 31.836-6.41 43.41-18.023 11.612-11.607 17.993-26.982 17.993-43.375V137.6c0-16.461-6.346-31.869-17.925-43.477C944.916 82.509 929.512 76.1 913.051 76.1h-231.89c-7.72-18.529-18.85-35.247-32.532-49.503H913.05c29.694 0 57.544 11.545 78.467 32.537 20.986 20.952 32.468 48.83 32.439 78.496zM877.997 455.86v403.752c0 9.568 7.783 17.316 17.318 17.316 9.568 0 17.322-7.748 17.322-17.316V455.861c0-9.569-7.72-17.317-17.322-17.317-9.534-.001-17.317 7.747-17.317 17.317zm-90.94 0v403.752c0 9.568 7.783 17.316 17.322 17.316a17.294 17.294 0 0017.323-17.316V455.861c0-9.569-7.72-17.317-17.323-17.317-9.54-.001-17.321 7.747-17.321 17.317zm-90.97 0v403.752c0 9.568 7.788 17.316 17.323 17.316a17.293 17.293 0 0017.322-17.316V455.861c0-9.569-7.72-17.317-17.322-17.317-9.569-.001-17.322 7.747-17.322 17.317zm-2.648-88.449V157.948h179.868c10.527 0 20.416 4.113 27.879 11.579 7.402 7.399 11.418 17.288 11.388 27.782l.03 130.87c0 21.658-17.575 39.268-39.235 39.268H693.44v-.035zM340.73 495.765c12.63-10.302 23.602-21.595 32.852-33.777-10.813-1.023-21.784-1.757-32.852-2.108v35.885zm71.449-28.39c11.257 2.074 21.944 4.595 31.961 7.53-17.671 12.728-38.342 22.676-61.052 29.12 11.195-11.481 20.987-23.697 29.09-36.65zm-138.975-5.386c10.81-1.023 21.75-1.757 32.886-2.108v35.949c-12.663-10.334-23.638-21.66-32.886-33.841zm-95.277 260.596c0 11.768-8.581 18.787-22.933 18.787-3.539 0-5.962-.16-7.972-.48v-34.64c1.625-.287 4.658-.605 10.079-.605 13.233 0 20.826 6.186 20.826 16.938zm56.681-255.21c8.167 12.953 17.926 25.168 29.09 36.62-22.68-6.443-43.317-16.398-60.988-29.09 9.987-2.934 20.704-5.455 31.898-7.53zm34.479 260.086l7.817 26.57H253.14c1.719-6.249 7.21-25.898 7.335-26.312 1.116-4.117 2.17-8.804 3.19-13.4.32-1.371.607-2.738.923-4.082 1.373 5.617 2.936 11.804 4.498 17.224zm114.098-505.657c21.85 6.186 41.847 15.628 59.101 27.688-9.821 2.804-20.286 5.164-31.29 7.145-7.876-12.313-17.224-23.955-27.81-34.833zm-77.094 8.07v33.909a512.528 512.528 0 01-31.547-1.948c8.93-11.515 19.551-22.17 31.547-31.962zm66.12 31.928c-10.333.957-20.827 1.66-31.482 1.946v-33.84c11.993 9.793 22.585 20.446 31.481 31.894zM113.782 26.596c-29.631 0-57.48 11.545-78.467 32.502C14.33 80.085 2.814 107.964 2.878 137.531v748.84c-.064 29.634 11.451 57.48 32.41 78.467 20.923 20.987 48.83 32.536 78.46 32.536l399.636-.034h19.935c38.308-.092 72.12-19.74 91.992-49.469h-.035c2.682-4.084 5.106-8.391 7.277-12.825.35-.671.666-1.373.988-2.04a109.708 109.708 0 008.77-28.389c.162-.989.322-2.04.478-3.062.671-4.978 1.182-10.016 1.182-15.214V137.532c0-5.164-.477-10.207-1.182-15.18-.127-1.022-.316-2.045-.443-3.033-1.66-9.982-4.628-19.517-8.774-28.419-.316-.671-.668-1.31-.955-1.976-2.2-4.434-4.595-8.775-7.305-12.825h.033c-19.842-29.729-53.683-49.376-92.089-49.468h-19.935l-399.538-.035zm41.468 739.526c-3.417 0-6.064-.16-8.23-.448v44.723h-31.067V683.858l1.275-.219c10.304-1.757 23.313-2.617 38.596-2.617 17.638 0 30.492 3.383 39.263 10.4 8.868 6.858 13.939 17.892 13.939 30.234 0 12.858-4.244 23.829-11.992 30.848-9.695 8.93-24.117 13.618-41.784 13.618zm136.292 44.275l-9.666-32.186h-33.715l-8.897 32.186H206.92l39.043-128.388h39.393l39.997 128.388h-33.809zm85.485 1.879c-15.059 0-29.348-4.148-36.235-8.006l-.989-.54 6.444-26.254 1.688.896c7.049 3.698 18.886 7.685 30.75 7.685 11.706 0 18.438-4.401 18.438-12.12 0-6.766-5.267-10.976-20.033-16.11-23.698-8.385-35.627-21.4-35.627-38.625 0-22.997 20.155-39.072 48.992-39.072 12.602 0 23.605 2.166 32.629 6.473l1.086.545-7.111 25.673-1.631-.827c-4.239-2.17-13.268-5.806-25.357-5.806-11.608 0-16.81 5.324-16.81 10.62 0 6.766 5.615 10.016 22.363 16.27 23.06 8.513 33.33 20.51 33.33 38.814-.034 18.631-13.619 40.384-51.927 40.384zm101.911 0c-14.996 0-29.314-4.148-36.269-8.006l-.988-.54 6.473-26.254 1.693.896c7.014 3.698 18.817 7.685 30.746 7.685 11.705 0 18.437-4.401 18.437-12.12 0-6.766-5.262-10.976-20.029-16.11-23.639-8.385-35.598-21.4-35.598-38.625 0-22.997 20.095-39.072 48.93-39.072 12.6 0 23.604 2.166 32.662 6.473l1.114.545-7.144 25.673-1.626-.827c-4.307-2.17-13.268-5.806-25.392-5.806-11.544 0-16.742 5.324-16.742 10.62 0 6.766 5.548 10.016 22.296 16.27 23.026 8.513 33.329 20.476 33.329 38.814 0 18.631-13.589 40.384-51.892 40.384zm12.82-332.873c-1.021 1.31-2.234 2.424-3.539 3.383-39.934 39.232-98.947 64.205-164.842 64.205-66.348 0-125.77-25.293-165.704-65.038-.48-.414-.924-.797-1.372-1.275-21.337-21.625-36.776-47.493-44.627-75.785h36.236c5.68 15.628 14.29 30.268 25.488 43.346 13.652-5.17 28.736-9.506 44.972-12.918-3.985-9.89-7.018-20.061-9.378-30.428h35.63c2.327 8.356 5.073 16.586 8.737 24.559 17.07-2.172 34.77-3.539 52.663-4.05v-20.48h34.643v20.48c17.892.511 35.564 1.878 52.662 4.05 3.636-7.943 6.411-16.203 8.737-24.56h35.661c-2.36 10.367-5.422 20.54-9.374 30.429 16.266 3.412 31.384 7.748 45.036 12.918 11.199-13.078 19.774-27.685 25.42-43.346h36.27c-7.659 27.718-22.62 53.139-43.319 74.51zm49.28-116.517c0 5.801-.38 11.544-.99 17.224H106.767a154.33 154.33 0 01-.989-17.224c0-5.778.35-11.487.958-17.132h433.349c.603 5.645.954 11.354.954 17.132zm-42.199-41.882c-5.87-16.27-14.928-31.42-26.73-44.878-13.462 4.974-28.327 9.155-44.368 12.47 4.337 10.494 7.656 21.342 10.177 32.375h-35.822c-2.52-9.057-5.646-17.987-9.695-26.569-16.747 2.073-34.098 3.348-51.644 3.894v22.675h-34.669v-22.647c-17.545-.539-34.93-1.815-51.673-3.888-4.054 8.576-7.18 17.512-9.73 26.569H208.9c2.486-11.038 5.806-21.915 10.142-32.375-15.983-3.349-30.876-7.53-44.304-12.504-11.837 13.457-20.895 28.608-26.793 44.878H111.71c7.972-28.803 23.858-55.085 45.77-76.967a15.577 15.577 0 011.693-1.563c39.935-38.916 98.69-63.666 164.235-63.666 65.485 0 124.207 24.72 164.141 63.603a13.75 13.75 0 011.884 1.753c21.848 21.849 37.7 48.1 45.672 76.87h-36.264v-.03zm-294.281-71.51c17.224-12.027 37.194-21.47 59.013-27.655-10.591 10.844-19.872 22.486-27.751 34.765-10.942-1.977-21.435-4.338-31.262-7.11zm0 0" fill="#7dc5eb" /></symbol><symbol class="icon" viewBox="0 0 1024 1024" id="wifi"><defs><style></style></defs><path d="M425.574 771.413a1.35 1.35 0 10172.852 0 1.35 1.35 0 10-172.852 0zM512 512c-83.217 0-157.082 39.322-204.595 100.352l45.534 35.43c36.864-47.513 94.276-78.028 159.061-78.028s122.13 30.515 159.198 78.028l45.397-35.43C669.082 551.322 595.217 512 512 512zm0-345.839c-194.219 0-366.66 91.887-477.389 234.086L81.17 436.43C181.18 308.087 336.76 225.212 512 225.212c175.172 0 330.82 82.875 430.83 211.217l46.627-36.25C878.592 257.98 706.22 166.161 512 166.161z" fill="#7dc5eb" /><path d="M512 339.08c-138.718 0-261.87 65.537-340.924 167.117l45.466 35.43c68.54-87.995 175.24-144.93 295.458-144.93s226.85 56.935 295.526 144.93l45.398-35.43C773.87 404.685 650.718 339.081 512 339.081z" fill="#7dc5eb" /></symbol><symbol class="icon" viewBox="0 0 1815 1024" id=""><defs><style></style></defs><path d="M146.739 0h1137.224q146.739 0 146.739 146.739v513.585q0 146.739-146.739 146.739H146.74Q0 807.063 0 660.324V146.739Q0 0 146.739 0z" fill="#3882FF" /><path d="M706.473 327.594v-40.573h-82.687c6.163-14.38 11.813-29.788 15.921-45.196h51.872v-40.06H571.4c-3.595-14.893-7.703-28.76-11.812-41.086l-51.872 8.73c4.622 9.759 9.244 20.544 13.353 32.357h-110.42v40.06h43.14c6.163 13.866 11.3 28.76 16.435 45.195h-74.983v40.573h311.232zM252.463 577.71c51.36-15.407 99.636-34.41 144.832-57.008v-49.304c-19.516 9.244-38.519 17.462-58.035 24.652V334.27h40.573v-47.25H339.26V168.384h-48.79V287.02h-49.305v47.25h49.304v177.7a914.182 914.182 0 01-50.845 12.326l12.84 53.413zm324.073-290.69h-60.09c-4.622-15.92-9.244-30.814-13.866-45.195h92.445a199.565 199.565 0 01-18.489 45.196zM374.697 641.396c50.332-12.326 86.283-28.247 107.853-48.277 18.49-19.003 31.329-43.141 37.492-72.416h43.655v65.225c0 31.33 14.894 47.25 45.709 47.25H665.9c15.408 0 27.22-3.595 35.437-10.785 7.704-7.704 13.354-30.815 16.435-69.334l-43.141-13.867c-1.027 25.68-3.081 40.573-6.163 45.71-2.568 4.108-6.163 6.676-10.785 6.676h-34.924c-7.704 0-11.299-5.136-11.299-14.894v-55.98h62.657V351.218H424.001v169.483h50.845a91.712 91.712 0 01-29.274 43.655c-18.49 14.38-48.277 25.68-89.364 33.383l18.49 43.655zm254.739-222.896H468.683v-28.761h160.753v28.76zm0 62.657H468.683v-28.76h160.753v28.76zm165.888 148.426c133.018-79.092 208.002-196.703 225.464-351.806v-43.14h-121.72c6.163-19.517 11.299-39.547 15.92-60.09l-48.79-8.218c-20.543 90.391-59.576 162.293-117.097 215.706l33.897 42.114c41.086-38.005 73.956-85.255 98.608-142.777h91.418c-7.704 49.305-21.57 94.5-42.114 135.587a421.874 421.874 0 00-73.443-48.277l-25.679 38.005c25.68 12.326 51.359 28.247 76.524 48.79-35.437 53.414-84.228 97.582-146.371 132.506l33.383 41.6zm308.664 9.758V373.303c26.707 22.598 59.063 53.413 97.068 92.96l30.302-45.71a1621.242 1621.242 0 00-127.37-101.69V166.842h-49.304V639.34h49.304z" fill="#FFF" /></symbol></defs></svg>